<?xml version="1.0" encoding="utf-8"?>
<!-- Generator: Adobe Illustrator 16.0.0, SVG Export Plug-In . SVG Version: 6.00 Build 0)  -->
<!DOCTYPE svg PUBLIC "-//W3C//DTD SVG 1.1//EN" "http://www.w3.org/Graphics/SVG/1.1/DTD/svg11.dtd">
<svg version="1.1" xmlns="http://www.w3.org/2000/svg" xmlns:xlink="http://www.w3.org/1999/xlink" x="0px" y="0px"
	 width="195.487px" height="464.047px" viewBox="0 0 195.487 464.047" enable-background="new 0 0 195.487 464.047"
	 xml:space="preserve">
<g id="レイヤー_1">
	<polygon fill="#EBC1CB" stroke="#F7F7F7" stroke-width="5" stroke-linejoin="round" stroke-miterlimit="10" points="2.5,57.127 
		29.709,9.994 56.923,57.127 	"/>
	<polygon fill="#EBC1CB" stroke="#F7F7F7" stroke-width="5" stroke-linejoin="round" stroke-miterlimit="10" points="56.923,57.127 
		97.742,9.994 138.561,57.127 	"/>
	<polygon fill="#EBC1CB" stroke="#F7F7F7" stroke-width="5" stroke-linejoin="round" stroke-miterlimit="10" points="
		138.561,57.127 165.774,9.994 192.987,57.127 	"/>
	<polygon fill="#EBC1CB" stroke="#F7F7F7" stroke-width="5" stroke-linejoin="round" stroke-miterlimit="10" points="2.5,57.127 
		97.742,152.259 56.923,57.127 	"/>
	<polygon fill="#EBC1CB" stroke="#F7F7F7" stroke-width="5" stroke-linejoin="round" stroke-miterlimit="10" points="56.923,57.127 
		97.742,152.259 138.561,57.127 	"/>
	<polygon fill="#EBC1CB" stroke="#F7F7F7" stroke-width="5" stroke-linejoin="round" stroke-miterlimit="10" points="
		138.561,57.127 97.742,152.259 192.987,57.127 	"/>
	<polygon fill="#EBC1CB" stroke="#F7F7F7" stroke-width="5" stroke-linejoin="round" stroke-miterlimit="10" points="29.712,9.994 
		56.923,57.127 97.742,9.994 	"/>
	<polygon fill="#EBC1CB" stroke="#F7F7F7" stroke-width="5" stroke-linejoin="round" stroke-miterlimit="10" points="97.742,9.994 
		138.561,57.127 165.771,9.994 	"/>
	<g>
		<path fill="#391E21" d="M73.413,137.23c-0.219,0.062-0.719,0.25-1.5,0.562c-0.562,0.25-1.172,0.375-1.827,0.375
			c-2.156,0-4.22-0.719-6.188-2.156c-1.438-1.062-3.031-2.688-4.781-4.875c-1.344-1.719-2.688-3.453-4.03-5.203
			c-1.72-2.031-3.703-3.983-5.953-5.858c-2.781,3.469-5.297,6.938-7.547,10.405c-2.531,3.97-4.142,6.422-4.828,7.359
			c-1.97,2.719-3.906,4.875-5.812,6.469l-1.172-0.375c-0.188-0.469-0.282-0.983-0.282-1.547c0-1.562,0.892-3.578,2.672-6.047
			l0.234,0.047c-0.094,0.469-0.141,0.922-0.141,1.359s0.047,0.844,0.141,1.219c2.594-2.469,5.359-5.828,8.297-10.078
			c2.781-4.062,4.969-7.828,6.562-11.297l-1.22-0.188c0.062-0.594,0.734-1.281,2.017-2.062c1.25,0.188,2.312,0.516,3.188,0.984
			l-1.125,2.109c1.625,0.75,3.656,2.344,6.095,4.78c3.188,3.156,5.125,4.984,5.812,5.484c0.125,0.125,2.203,1.452,6.234,3.983
			C71.101,134.465,72.819,135.98,73.413,137.23z M63.288,151.575c0,2.062-0.812,3.062-2.438,3h-0.328
			c-0.562-0.5-1.109-1.345-1.641-2.531c-0.595-1.405-1.048-2.312-1.359-2.719c-3.562,1-7.766,2.344-12.609,4.03
			c-1.312,0.406-2.625,0.828-3.938,1.267c-1.531,0.53-2.734,1.172-3.609,1.922c-0.75-0.53-1.25-1.344-1.5-2.438l0.328-0.983
			c2.781-0.656,6.531-4.358,11.25-11.108c-3.906,1.312-6.828,2.375-8.766,3.188c-0.906-0.562-1.453-1.578-1.642-3.047
			c5.062-3.438,8.812-7.047,11.25-10.828l-3.233-0.703c0.188-0.344,1-0.844,2.438-1.5c1.438-0.656,2.406-0.984,2.906-0.984
			c0.969,0,2.016,0.188,3.141,0.562c1.47,0.5,2.203,1.141,2.203,1.922c0,0.75-0.516,1.125-1.547,1.125
			c-1.688,0-4.188,1.188-7.5,3.562c-2.562,1.875-4.75,3.766-6.562,5.672l0.469,0.233c3.438-0.78,7.266-2.188,11.484-4.219
			c1.969,0.219,3.422,0.672,4.358,1.358c-0.125,0.97-0.641,1.562-1.547,1.781c-0.469,0.094-1.156,0.266-2.062,0.516
			c-0.438,0.125-1.234,0.72-2.392,1.781c-1.844,1.688-4.016,4.484-6.516,8.392c2.719-1.188,6.953-2.423,12.703-3.703
			c-0.906-1.438-1.923-2.578-3.048-3.422l0.048-0.281h0.375c2.062-0.062,3.969,0.672,5.719,2.203c0.75,0.688,1.5,1.608,2.25,2.767
			C62.851,149.7,63.288,150.762,63.288,151.575z"/>
		<path fill="#391E21" d="M92.772,123.59c0,0.594-0.25,1.031-0.75,1.312c-0.625,0.188-1.547,0.562-2.766,1.125
			c-0.406,0.281-1.578,1.391-3.517,3.328l-0.608,0.233l1.922-3.469c-2.906,0.938-6.531,3.03-10.875,6.28l-0.328-0.75
			c0-0.688,0.031-1.297,0.094-1.827c1.312-1,3.625-2.375,6.938-4.125c3.5-1.875,5.905-2.938,7.219-3.188
			C91.319,122.762,92.211,123.122,92.772,123.59z M90.101,143.23c-0.344,1.062-0.734,2.234-1.172,3.517
			c-0.595,1.75-1.392,4.422-2.392,8.017l-0.516,0.233c-0.875-1-1.312-1.767-1.312-2.297c0-0.812,0.281-1.609,0.845-2.392
			c-0.25-0.594-0.531-0.891-0.845-0.891c-0.75,0-1.655,0.516-2.719,1.547c-0.906,0.938-1.531,1.812-1.875,2.625l-0.703,0.516
			l-0.655-1.594l0.141-1.688c0.656-0.875,1.641-2.203,2.953-3.984c0.781-1.031,1.938-2.625,3.469-4.781h-0.281
			c-1.155-0.031-2.219,0.142-3.188,0.517l-0.609-1.642c1.531-2.438,2.609-4.375,3.234-5.812c-0.656,0.094-1.125,0.142-1.406,0.142
			c-0.969,0-1.453-0.281-1.453-0.845c0.25-0.125,1.203-0.812,2.859-2.062c1.188-0.875,2.203-1.312,3.047-1.312
			c1.062,0,1.828,0.375,2.297,1.125c-1.625,1.281-2.781,2.312-3.469,3.094c-0.906,0.938-1.812,2.188-2.719,3.75
			c1.375-0.281,2.172-0.422,2.391-0.422c1.281,0,2.078,0.328,2.391,0.984c-1.719,2.031-3.297,4.766-4.733,8.203
			c0.562-0.125,1.125-0.188,1.688-0.188c0.5,0,1,0.062,1.5,0.188c0.595-1.25,1.672-2.969,3.234-5.156L90.101,143.23L90.101,143.23z
			 M89.772,118.575c0.031,0.344-0.078,0.664-0.328,0.961s-1.18,0.883-2.789,1.758c-1.608,0.875-2.602,1.358-2.977,1.453l2.016-3.281
			l-1.406-1.312c0.595-0.719,1.234-1.078,1.923-1.078c1.28,0,2.469,0.453,3.562,1.359V118.575z M120.851,157.152
			c0,0.688-0.328,1.142-0.984,1.359c-1.5-0.062-3.141-1.328-4.922-3.797c-0.688-0.906-1.828-2.781-3.422-5.625
			c-0.125,0.094-1.188,1.141-3.188,3.141c-1.655,1.625-2.702,2.484-3.141,2.578c-0.656-0.625-0.984-1.483-0.984-2.578
			c0-1.344,0.845-3.844,2.531-7.5l0.094,0.47c-0.375,1.562-0.562,2.875-0.562,3.938c0,0.688,0.078,1.28,0.234,1.78
			c1.188-0.905,2.5-2.453,3.938-4.642c-0.844-1.25-1.562-2.844-2.156-4.78c-0.938,0.062-2.391,0.797-4.358,2.203
			c-1.75,1.219-3.047,2.297-3.892,3.233c0.156,1.594,0.234,3.297,0.234,5.109c0,1.469-0.609,3.125-1.828,4.969
			c-0.875-0.125-1.5-0.562-1.875-1.312s-0.719-1.484-1.031-2.203c-0.25-0.438-0.719-1.125-1.405-2.062
			c-1.031,0.812-2.109,2.094-3.234,3.844c-0.656,0-0.984-0.797-0.984-2.392c0.75-1.125,1.642-2.233,2.673-3.327
			c-0.688-1.095-1.25-2.203-1.688-3.328c0.156-1.25,1.094-2.578,2.812-3.984c1.344-1.125,2.766-2.016,4.266-2.672
			c-0.031-0.562-0.188-1.125-0.469-1.688c-1.375,0.562-2.672,0.906-3.892,1.031l-0.608-0.328c1.469-1.155,3.547-3.016,6.233-5.578
			l-0.375-0.469c-0.938,0.25-2.828,1.172-5.672,2.767c-0.344-0.188-0.531-0.547-0.562-1.078c0-0.406,0-0.828,0-1.267
			c0.75-0.75,1.438-1.125,2.062-1.125c0.188,0,0.344,0.047,0.469,0.142c3.062-1.438,5.517-2.547,7.359-3.328l-0.047-1.406
			c-1.281,0.469-2.267,0.703-2.953,0.703c-0.594,0-1.234-0.172-1.922-0.516l0.141-0.234c1.906-0.656,3.47-1.375,4.688-2.156
			l-0.517-1.5c-1.438,0.781-3.016,1.281-4.733,1.5l-2.062-1.078l0.234-0.328c1.469-0.219,2.641-0.547,3.516-0.984
			c-0.969-1.03-1.547-2.03-1.733-3c0.094-0.53,0.141-1.047,0.141-1.547c0-0.469-0.047-0.922-0.141-1.358l0.28-0.047
			c1.5,0.344,2.5,0.983,3,1.922l1.875-0.983l-0.094,0.375c-0.531,0.562-1.062,1.141-1.594,1.733
			c-0.594,0.688-0.875,1.375-0.844,2.062v0.234c1.688-0.625,2.883-1.172,3.586-1.641s1.647-1.359,2.836-2.672
			c0.438-0.531,1.156-1.281,2.156-2.25v-0.234c0-0.406-0.234-0.844-0.703-1.312l1.312-0.469c0.531,0.031,1.078,0.078,1.642,0.141
			c0.562,0.063,0.938,0.359,1.125,0.892c-0.062,0.469-0.828,1.203-2.298,2.203c-0.405,0.28-1.422,1.233-3.047,2.858
			c1.562-0.594,2.547-0.891,2.953-0.891c1.438,0,2.156,0.516,2.156,1.547c0,0.438-0.219,0.75-0.656,0.938
			c-0.031,0.031-0.483,0.078-1.358,0.142c-2.72,0.281-4.642,0.845-5.767,1.688c0.438,0.375,0.719,0.766,0.844,1.172
			c0.5-0.188,1.188-0.281,2.062-0.281c0.562,0,1,0.234,1.312,0.703l-0.094,0.562c-0.156,0.25-0.664,0.469-1.522,0.655
			c-0.859,0.187-1.398,0.453-1.617,0.797c-0.031,0.531-0.078,1.095-0.142,1.688c2.562-0.75,4.938-1.125,7.125-1.125
			c1.688,0,2.845,0.5,3.47,1.5c0,1.281-0.595,1.922-1.781,1.922c-0.438,0-1.086-0.047-1.945-0.141
			c-0.858-0.095-1.508-0.142-1.944-0.142c-0.72,0-1.359,0.047-1.923,0.142l0.562,0.703l-0.469,0.983
			c0.125,1.812,0.594,3.655,1.405,5.53c1.312-0.938,1.97-1.844,1.97-2.719c1.469,0,2.625,0.469,3.469,1.406
			c-0.062,0.719-0.703,1.422-1.922,2.109c-1.406,0.812-2.22,1.438-2.438,1.875c0.188,0.844,0.703,2.047,1.547,3.609
			c0.75-1.22,1.095-2.095,1.031-2.625l0.562-0.75c0.625-0.125,1.094-0.188,1.405-0.188c0.845,0,1.297,0.203,1.359,0.608
			c-0.219,0.562-0.758,1.414-1.617,2.556c-0.858,1.141-1.383,2.055-1.57,2.741c1.47,2.562,2.875,4.375,4.22,5.438
			c0.312-0.969,0.483-2.233,0.516-3.797c0.062-2,0.125-3.267,0.188-3.797c0.688,1.03,1.172,2.375,1.452,4.03
			c0.188,1.438,0.375,2.859,0.562,4.267c0.062,0.345,0.281,1.125,0.656,2.345C120.711,155.73,120.851,156.527,120.851,157.152z
			 M97.93,141.168c-1.156,0.156-2.359,0.719-3.609,1.688c-1.375,1.062-2.062,2.125-2.062,3.188c0,0.312,0.405,1.125,1.219,2.438
			c0.781-1.188,1.578-2.375,2.391-3.562C96.741,143.512,97.43,142.262,97.93,141.168z M97.883,149.887
			c0-0.469-0.031-0.984-0.095-1.547c-0.75,0.906-1.469,1.641-2.155,2.203c0.655,0.719,1.203,1.281,1.641,1.688
			C97.68,151.668,97.883,150.887,97.883,149.887z M107.351,138.637c-0.281-0.594-0.734-1.969-1.359-4.125
			c-0.5-1.719-1.094-3.031-1.78-3.938c-1,0.188-2.359,0.688-4.078,1.5c0.219,0.312,0.641,0.609,1.266,0.891
			c0.625,0.282,1.047,0.531,1.266,0.75c-0.188,0.469-0.491,0.805-0.914,1.008c-0.422,0.203-0.819,0.414-1.194,0.633
			c-0.5,0.345-1.203,0.892-2.109,1.642l0.797,0.655l0.234,0.984c0.438-0.125,0.828-0.188,1.172-0.188
			c0.625,0,1.031,0.203,1.219,0.609c-0.094,0.28-0.483,0.914-1.172,1.897c-0.688,0.983-1.031,1.539-1.031,1.664v0.938
			C102.133,141.997,104.694,140.355,107.351,138.637z M120.054,134.7c0,0.53-0.345,0.969-1.031,1.312
			c-2.594-0.156-4.469-1.141-5.625-2.953l0.422-0.328c0.75-0.155,1.5-0.233,2.25-0.233
			C118.726,132.497,120.054,133.23,120.054,134.7z"/>
	</g>
	<g>
		<path fill="#391E21" d="M56.28,11.859c0,0.719-0.438,1.484-1.312,2.297c-0.157,0.157-1,0.594-2.531,1.312
			c-2.875,1.375-4.938,2.812-6.188,4.312c-0.719,0.844-1.25,1.906-1.594,3.188c-1.75,6.813-5.047,11.985-9.891,15.516
			c-1.156,0.844-2.172,1.437-3.047,1.781c-0.688-0.312-1.031-1.484-1.031-3.516c0-0.75,0.218-1.656,0.656-2.719
			c0.593-1.281,0.938-2.141,1.03-2.578l0.235,0.048c0.125,1.219,0.359,2.109,0.703,2.672h0.188c0.562,0.031,1.267-0.203,2.109-0.703
			c3.312-2.062,5.531-6.579,6.656-13.547c-3.438,0.219-5.032,0.328-4.781,0.328c-1.5,0-3.406-0.687-5.719-2.062l0.281-0.234
			c2.625-0.469,4.594-0.859,5.905-1.172c2.5-0.625,4.359-1.328,5.578-2.109c0.062-0.719,0.328-2.297,0.797-4.734
			c0.345-1.969,0.5-3.562,0.47-4.781V4.641c-0.845-0.562-1.734-0.844-2.673-0.844l-0.422-0.375c0.345-0.719,0.72-1.46,1.125-2.227
			c0.406-0.766,1.016-1.148,1.828-1.148c0.125,0,0.312,0.016,0.562,0.047c0.25,0.031,0.438,0.047,0.562,0.047
			c2.125,0,3.312,0.734,3.562,2.203c-0.72,0.781-1.203,1.61-1.453,2.484c-0.063,0.562-0.157,1.375-0.281,2.438
			c-0.219,1.344-0.547,3.359-0.984,6.047c1.531-0.593,2.781-1.469,3.75-2.625l0.234-1.734c0.218,0.157,0.688,0.359,1.406,0.609
			c1.718,0.25,2.608,0.391,2.672,0.422C55.748,10.297,56.28,10.922,56.28,11.859z M65.89,36.938c0,0.844-0.579,1.266-1.734,1.266
			c-0.938,0-2.094-0.141-3.469-0.422c-1.125-0.281-2.25-0.547-3.375-0.797c-0.594-0.031-1.453-0.141-2.578-0.328
			c2.562-0.438,4.266-1.047,5.109-1.828c-1.282-1.781-3.656-3.516-7.125-5.203c-0.47-0.219-1.156-0.578-2.062-1.078l0.375-0.141
			c3,0.062,6.031,0.75,9.094,2.062C63.969,32.188,65.89,34.344,65.89,36.938z"/>
		<path fill="#391E21" d="M161.655,13.219c0,0.781-1.094,1.266-3.281,1.453c-0.719,0.625-1.766,1.344-3.141,2.156
			c-1.594,0.907-2.672,1.578-3.234,2.016c0.656,0.469,1.297,0.984,1.923,1.547l0.375,1.406c-0.688,0.813-1.688,1.375-3,1.688
			c-0.688,0.094-1.704,0.234-3.048,0.422c-2.125,0.312-4.297,0.688-6.516,1.125l-1.359-0.422c-0.5,0.094-0.961,0.406-1.383,0.938
			c-0.422,0.532-1.272,2.188-2.555,4.969c-1.5,3.281-3.125,5.625-4.875,7.031c-1.875,1.5-4.563,2.515-8.062,3.047l-0.516-0.141
			c3.593-2.469,6.789-5.617,9.586-9.445c2.796-3.828,4.789-7.821,5.978-11.977L137.797,18l1.5-0.938l2.812,0.984
			c-0.812,1.625-1.219,2.656-1.219,3.094c0,0.25,0.031,0.5,0.094,0.75c3.656-0.906,6.344-1.969,8.062-3.188
			c1.343-0.938,3.391-2.984,6.141-6.141c-0.969-0.344-1.985-0.516-3.047-0.516c-2.562,0-6.148,0.797-10.758,2.391
			c-4.61,1.594-7.931,3.172-9.961,4.734l-1.22-0.188v-0.328c-0.03-0.593,0.109-1.406,0.422-2.438l-0.141-1.031
			c0.625-0.188,1.484-0.687,2.578-1.5l0.797,1.359c2.781-1.188,6.25-2.438,10.406-3.75c5.093-1.625,8.594-2.438,10.5-2.438
			c0.5,0,1.062,0.11,1.688,0.328c0.625,0.219,1.595,0.797,2.906,1.734C160.89,11.984,161.655,12.75,161.655,13.219z M151.53,4.406
			c-0.375,0.25-0.797,0.391-1.266,0.422c1-0.031,0.546-0.047-1.359-0.047c-1,0-2.266,0.359-3.797,1.078
			c-1.188,0.625-2.375,1.235-3.562,1.828l2.766-3.469c-0.25-0.438-0.609-0.766-1.078-0.984c-0.469-0.218-0.75-0.391-0.844-0.516
			c-0.219-0.218-0.392-0.562-0.517-1.031s-0.25-0.766-0.375-0.891L141.874,0c1.406,0.406,2.812,0.609,4.22,0.609
			c0.844,0,1.641-0.062,2.391-0.188c1.094,0.75,2.031,1.61,2.812,2.578L151.53,4.406z"/>
		<path fill="#391E21" d="M86.735,7.335c-1.031,1.375-1.985,2.062-2.859,2.062c-1,0-1.905,0.43-2.719,1.289
			c-0.812,0.859-1.219,1.773-1.219,2.742c0,0.344,0.265,1.117,0.797,2.32c0.531,1.203,0.797,2.18,0.797,2.93
			c0,1.031-0.194,2.555-0.586,4.57c-0.391,2.016-0.586,3.539-0.586,4.57c0,0.531,0.031,1.094,0.094,1.688
			c1.156-1.844,2.767-4.656,4.828-8.438l0.094,0.469c-1.625,4.406-2.688,7.219-3.188,8.438c-1.906,4.844-3.11,7.422-3.609,7.734
			c-1.312-0.656-1.969-1.922-1.969-3.797c0-1.125,0.875-5.422,2.625-12.891c0.438-1.844,0.656-3.031,0.656-3.562
			c0-0.406-0.086-1.008-0.258-1.805c-0.172-0.797-0.259-1.398-0.259-1.805c0-1.281,0.603-2.812,1.806-4.594
			c1.203-1.781,1.805-3.016,1.805-3.703c0-0.75-0.391-1.641-1.172-2.672h0.469c1,0,1.969,0.5,2.906,1.5
			C86.032,5.32,86.548,6.304,86.735,7.335z"/>
		<path fill="#391E21" d="M117.25,32.164c0,1.031-0.531,1.547-1.594,1.547c-0.719,0-2.319-0.477-4.805-1.43
			c-2.485-0.953-4.508-1.43-6.07-1.43c-2.688,0-5.281,0.359-7.781,1.078c-2.875,0.844-5.188,2.047-6.938,3.609l-0.609-0.469v-2.062
			c0.406-0.688,1.578-1.391,3.517-2.109c2.562-0.938,4.266-1.672,5.108-2.203c1.845-1.125,2.984-2.586,3.422-4.383
			c0.438-1.797,0.656-4.039,0.656-6.727c0-2.656-0.484-4.406-1.453-5.25c0-0.625,0.25-1.266,0.75-1.922
			c-1.155-0.188-2.312-0.375-3.469-0.562c-1.438-0.281-2.422-0.797-2.953-1.547l0.609-0.047c0.625-0.344,1.547-0.703,2.766-1.078
			c3.531-1.094,6.109-2.203,7.734-3.328h0.375c3.312-0.062,5.344,0.516,6.094,1.734c-0.062,0.844-0.86,1.453-2.391,1.828
			c-1.531,0.375-3.047,0.734-4.547,1.078c-1.812,0.625-2.984,1.656-3.517,3.094c0.812,0.344,1.642,0.672,2.484,0.984
			c0.875,0.469,1.312,1.172,1.312,2.109c-0.344,0.438-0.672,1.828-0.983,4.172c-0.22,1.594-0.422,3.172-0.609,4.734
			c-0.281,1.312-0.656,2.719-1.125,4.219c1.156-0.094,2.297-0.141,3.422-0.141c2.219,0,3.984,0.172,5.297,0.516
			c1.781,0.469,3.359,1.328,4.734,2.578C117.063,31.101,117.25,31.57,117.25,32.164z"/>
	</g>
	<g>
		<path fill="#391E21" d="M135.594,122.27c1.023,0,2.049,0.287,3.073,0.863s1.938,1.512,2.741,2.809
			c0.804,1.295,1.454,2.983,1.952,5.062c0.499,2.081,0.748,4.625,0.748,7.633s-0.25,5.553-0.748,7.633s-1.148,3.768-1.952,5.062
			c-0.804,1.297-1.717,2.232-2.741,2.809s-2.049,0.863-3.073,0.863c-1.054,0-2.083-0.287-3.095-0.863s-1.91-1.512-2.699-2.809
			c-0.789-1.296-1.434-2.982-1.932-5.062c-0.499-2.08-0.748-4.625-0.748-7.633s0.25-5.552,0.748-7.633
			c0.498-2.079,1.143-3.768,1.932-5.062c0.79-1.297,1.688-2.231,2.699-2.809C133.51,122.557,134.54,122.27,135.594,122.27z
			 M135.635,123.709c-0.831,0-1.552,0.344-2.16,1.031c-0.609,0.688-1.115,1.68-1.517,2.977c-0.4,1.295-0.699,2.863-0.894,4.703
			c-0.193,1.841-0.291,3.896-0.291,6.168c0,2.273,0.097,4.337,0.291,6.192s0.492,3.433,0.894,4.728c0.401,1.297,0.907,2.297,1.517,3
			c0.607,0.705,1.329,1.057,2.16,1.057s1.543-0.352,2.139-1.057c0.596-0.703,1.093-1.703,1.496-3c0.4-1.295,0.699-2.871,0.893-4.728
			c0.193-1.855,0.291-3.919,0.291-6.192c0-2.271-0.098-4.327-0.291-6.168c-0.193-1.84-0.492-3.408-0.893-4.703
			c-0.402-1.297-0.9-2.287-1.496-2.977C137.178,124.053,136.466,123.709,135.635,123.709z"/>
		<path fill="#391E21" d="M147.812,141.805l4.236-18.769h3.031c0.167,0.192,0.396,0.36,0.686,0.505
			c0.291,0.145,0.603,0.264,0.935,0.359c0.333,0.096,0.665,0.168,0.998,0.216c0.332,0.048,0.623,0.071,0.872,0.071
			c0.748,0,1.481-0.136,2.201-0.407s1.397-0.647,2.036-1.128l0.582,0.768c-1.329,1.057-2.617,1.944-3.863,2.664
			c-1.247,0.721-2.7,1.08-4.361,1.08c-0.36,0-0.728-0.039-1.101-0.119s-0.741-0.168-1.1-0.265l-2.617,10.079
			c0.636-0.352,1.343-0.68,2.119-0.982c0.774-0.305,1.633-0.457,2.574-0.457c1.19,0,2.306,0.186,3.345,0.553
			c1.039,0.368,1.944,0.928,2.72,1.68s1.377,1.714,1.807,2.881c0.431,1.169,0.645,2.566,0.645,4.199
			c0,1.664-0.264,3.138-0.789,4.416c-0.526,1.28-1.239,2.353-2.139,3.217c-0.9,0.863-1.952,1.521-3.156,1.968
			c-1.205,0.448-2.486,0.672-3.842,0.672c-0.748,0-1.545-0.137-2.389-0.407c-0.845-0.271-1.627-0.673-2.347-1.199
			c-0.721-0.528-1.323-1.176-1.807-1.944c-0.485-0.769-0.729-1.647-0.729-2.64c0-0.896,0.146-1.615,0.438-2.16
			c0.291-0.545,0.795-0.816,1.516-0.816c0.582,0,1.08,0.232,1.495,0.696c0.416,0.464,0.623,1.112,0.623,1.944
			c0,0.641-0.057,1.104-0.166,1.392c-0.111,0.288-0.167,0.655-0.167,1.104c0,0.416,0.151,0.783,0.458,1.104
			c0.304,0.32,0.678,0.593,1.121,0.816c0.442,0.225,0.906,0.393,1.391,0.504s0.907,0.168,1.268,0.168
			c0.664,0,1.322-0.168,1.973-0.504s1.247-0.849,1.787-1.537c0.54-0.688,0.976-1.543,1.308-2.566s0.499-2.24,0.499-3.648
			c0-1.088-0.111-2.119-0.332-3.096c-0.222-0.977-0.576-1.832-1.06-2.568c-0.484-0.735-1.087-1.319-1.808-1.752
			c-0.72-0.432-1.578-0.647-2.575-0.647c-1.411,0-2.555,0.449-3.427,1.344c-0.872,0.896-1.529,2.064-1.973,3.504L147.812,141.805z"
			/>
	</g>
	
		<linearGradient id="SVGID_1_" gradientUnits="userSpaceOnUse" x1="104.2061" y1="511.0684" x2="104.2061" y2="576.5488" gradientTransform="matrix(1 0 0 -1 -8.3599 624.6641)">
		<stop  offset="0.3" style="stop-color:#B81C25"/>
		<stop  offset="1" style="stop-color:#391E21"/>
	</linearGradient>
	<path fill="url(#SVGID_1_)" d="M151.061,70.619c-0.46,0-0.938,0.049-1.424,0.145c-0.347,0.071-1.082,0.322-3.693,1.657
		c-0.262,0.131-0.697,0.348-3.36,4.88c-1.68,2.858-3.543,5.271-5.538,7.177c-2.608,2.499-3.604,2.769-3.913,2.769
		c-0.17,0-0.317,0-0.317-0.55c0-0.382,0.293-1.587,2.237-5.396c1.516-2.968,2.659-5.023,3.397-6.108
		c0.837-1.228,1.243-2.173,1.243-2.886c0-0.528-0.207-1.754-2.121-1.754c-1.111,0-2.173,0.299-3.154,0.89
		c-0.257,0.151-0.582,0.402-0.993,0.768c-0.421,0.371-0.668,0.608-0.803,0.77c-0.109,0.133-0.728,0.828-1.854,2.086
		c-1.145,1.279-2.65,3.171-4.417,5.552c-0.028,0.027-0.048,0.062-0.073,0.092c-1.032,1.058-2.543,2.297-3.45,3.015
		c2.465-3.311,3.96-6.675,4.446-10.081v-0.604c0-2.004-1.225-2.221-1.754-2.221c-2.043,0-4.913,1.729-8.732,5.273
		c0.254-0.602,0.539-1.284,0.857-2.048c0.848-2.036,1.555-3.679,2.164-5.022c0.619-1.377,1.426-3.043,2.392-4.951
		c0.956-1.891,1.937-3.51,2.914-4.815c0.98-1.306,2.105-2.585,3.345-3.802c1.208-1.188,2.557-2.1,4.012-2.71
		c1.456-0.61,3.048-0.921,4.736-0.921c2.053,0,2.053,0.83,2.053,1.187c0,0.075,0.026,0.751,0.918,0.751
		c0.541,0,0.918-0.363,0.918-0.887l-0.001-1.973c-0.057-0.907-0.435-1.615-1.128-2.104c-0.639-0.451-1.387-0.681-2.226-0.681
		c-3.137,0-6.664,1.958-10.783,5.986c-5.045,4.957-9.815,12.113-14.18,21.27l-2.217,2.609c-0.278,0.327-0.527,0.619-0.757,0.888
		l-0.412,0.413c-0.047,0.045-0.256,0.275-0.655,0.729c-1.522,2-3.259,3.758-5.163,5.229c-2.237,1.747-3.189,2.007-3.56,2.007
		c-0.229,0-0.384-0.569-0.384-1.417c0-0.87,0.437-2.85,2.516-7.355c2.025-4.397,3.395-5.605,4.193-5.844
		c1.078-0.33,1.305-0.938,1.305-1.393c0-0.699-0.471-0.885-0.75-0.885c-0.24,0-0.414,0.074-0.534,0.159
		c-0.71,0.337-1.72,0.507-3.005,0.507h-0.936c-0.434,0-0.734,0.312-1.35,1.4c-2.937,5.613-5.816,9.782-8.559,12.394
		c-2.229,2.117-3.201,2.434-3.58,2.434c-0.17,0-0.316,0-0.316-0.55c0-0.381,0.29-1.588,2.236-5.396
		c1.517-2.968,2.66-5.021,3.398-6.107c0.835-1.229,1.242-2.174,1.242-2.886c0-0.527-0.206-1.754-2.121-1.754
		c-1.111,0-2.174,0.298-3.153,0.89c-0.258,0.152-0.583,0.402-0.995,0.768c-0.421,0.371-0.666,0.608-0.801,0.771
		c-0.111,0.133-0.729,0.827-1.855,2.085c-1.094,1.224-2.524,3.018-4.223,5.286c-0.016,0.021-0.033,0.041-0.049,0.062
		c-3.555,4.667-6.758,7.035-9.523,7.035c-1.756,0-3.438-0.956-4.995-2.843c-2.571-3.183-4.749-6.657-6.486-10.337
		c2.196-0.174,4.464-0.539,6.751-1.092c2.65-0.639,4.756-1.516,6.262-2.605c1.486-1.074,2.81-2.363,3.935-3.83
		c1.169-1.528,1.764-3.608,1.764-6.184c0-3.76-1.651-6.181-4.903-7.201c-1.568-0.506-3.115-0.762-4.609-0.762h-0.002l-2.655,0.066
		c-0.7,0-1.399-0.021-2.142-0.066l-9.879,0.066c-1.59,0-2.837,0.023-3.715,0.068c-5.52,0.382-8.319,2.163-8.319,5.291
		c0,1.188,0.481,2.535,1.442,4.021c0.83,1.217,1.193,1.535,1.412,1.672c0.445,0.289,0.959,0.286,1.398,0.002
		c0.43-0.271,0.496-0.585,0.478-0.801c-0.015-0.17-0.104-0.483-0.446-0.612c-0.523-0.327-0.778-0.897-0.778-1.745
		c0-2.528,2.106-4.145,6.44-4.935c3.328-0.614,5.83-0.925,7.432-0.925c0.283,0,0.553,0.001,0.807,0.003
		c-0.845,0.532-1.444,1.134-1.81,1.81c-0.187,0.326-0.522,1.008-1.024,2.082c-0.489,1.043-1.043,2.185-1.664,3.424
		c-0.615,1.231-1.802,3.446-3.527,6.59c-1.737,3.162-3.354,6.137-4.844,8.92c-1.497,2.792-3.256,5.896-5.237,9.236
		c-0.937,1.67-2.191,2.619-3.837,2.898l-0.166,0.055c-0.303,0.146-0.482,0.429-0.482,0.757c0,0.306,0.141,1.019,1.453,1.019
		c0.469,0,1.309-0.185,3.629-1.627c1.438-0.88,1.981-0.976,2.148-0.976c0.115,0,0.26,0.011,0.435,0.028
		c0.179,0.021,0.317,0.038,0.401,0.057c0.09,0.019,0.205,0.055,0.353,0.111c0.191,0.068,0.347,0.111,0.482,0.128
		c0.974,0.349,1.353,0.014,1.481-0.185c0.109-0.169,0.202-0.458-0.004-0.919c-0.055-0.101-0.266-0.732,0.889-3.324
		c0.4-0.891,0.822-1.825,1.268-2.804c0.438-0.964,0.95-2.01,1.521-3.109c0.575-1.105,1.085-2.059,1.53-2.855
		c0.444-0.802,0.891-1.618,1.338-2.445c0.449-0.832,0.785-1.47,1.011-1.921c0.223-0.443,0.79-1.591,1.704-3.442
		c0.908-1.838,1.652-3.302,2.229-4.389c0.572-1.076,1.298-2.374,2.158-3.852c0.851-1.461,1.697-2.717,2.518-3.729
		c0.718-0.891,2.219-1.34,4.461-1.34c2.325,0,3.841,0.943,4.629,2.873c0.327,0.858,0.494,1.761,0.494,2.683
		c0,0.931-0.189,1.927-0.568,2.976c-0.934,2.758-2.32,4.837-4.144,6.195c-0.631,0.51-1.595,0.895-2.866,1.142
		c-1.353,0.261-2.491,0.415-3.385,0.455c-0.926,0.046-1.973,0.067-3.143,0.067h-2.303c-0.604,0-1.271,0.577-2.302,1.99l-0.218,0.299
		l0.16,0.332c0.043,0.092,0.441,0.955,1.195,2.595c3.842,8.413,7.441,13.256,11.001,14.801l2.394,0.505l0.123,0.013
		c3.402,0,7.322-3.119,11.98-9.529c0.094-0.124,0.172-0.253,0.242-0.382c1.655-2.197,3.146-3.92,4.417-5.073
		c0.578-0.522,1.013-0.893,1.337-1.153c-0.265,0.507-0.678,1.34-1.24,2.496c-0.665,1.379-1.197,2.467-1.598,3.267
		c-1.797,3.59-2.669,5.908-2.669,7.086c0,0.567,0.216,1.889,2.222,1.889c3.116,0,6.342-1.978,9.791-6.021
		c-0.535,1.595-0.796,2.773-0.796,3.599c0,0.903,0.384,2.422,2.958,2.422c3.476,0,7.191-2.536,11.023-7.495
		c0.135-0.103,0.227-0.225,0.268-0.285c0.051-0.073,0.134-0.185,0.266-0.346c-1.844,4.424-2.094,5.614-2.094,6.105
		c0,1.104,0.675,2.422,3.891,2.422c3.691,0,7.165-1.928,10.325-5.732c0.006-0.008,0.013-0.017,0.02-0.023l0.303-0.133
		c0,0,3.579-1.627,4.904-2.461c0.084-0.03,0.17-0.062,0.293-0.095c1.837-2.493,3.616-4.283,5.002-5.538
		c0.577-0.523,1.014-0.894,1.337-1.154c-0.268,0.507-0.681,1.341-1.24,2.496c-0.667,1.379-1.198,2.467-1.599,3.268
		c-1.796,3.59-2.668,5.907-2.668,7.085c0,0.567,0.216,1.889,2.221,1.889c2.512,0,5.172-1.34,7.911-3.983
		c1.087-1.06,2.251-2.354,3.481-3.867c-0.742,2.077-1.462,3.971-2.145,5.652c-2.199,5.097-4.635,9.47-7.241,12.998
		c-2.571,3.477-5.732,6.049-9.378,7.636c-1.609,0.636-3.296,0.96-5.015,0.96c-1.665,0-3.04-0.485-4.205-1.486
		c-1.135-0.978-1.688-2.343-1.69-4.124l0.136-1.718c0-0.43-0.322-0.752-0.752-0.752c-0.332,0-1.42,0.117-1.42,1.618v1.137
		c0,3.657,1.482,6.292,4.409,7.827c1.64,0.846,3.42,1.272,5.293,1.272c4.294,0,8.354-1.975,12.064-5.87
		c2.026-2.117,3.676-4.28,4.898-6.431c1.204-2.117,2.45-4.689,3.706-7.645c4.901-11.7,7.911-18.38,8.954-19.858
		c0.459-0.67,1.036-0.996,1.76-0.996c0.9,0,1.218-0.586,1.218-1.086C152.322,71.208,151.985,70.619,151.061,70.619z M120.38,80.542
		c-1.609,2.784-2.986,4.714-4.11,5.75c-1.41,1.41-2.646,2.157-3.569,2.157c-1.05,0-1.05-0.415-1.05-0.717
		c0-1.081,0.807-3.29,4.662-7.682c0.916-1.089,2.134-2.354,3.622-3.753c1.817-1.71,2.572-1.946,2.809-1.966
		c0.011,0.044,0.022,0.121,0.022,0.246C122.766,75.795,121.963,77.804,120.38,80.542z"/>
</g>
<g id="レイヤー_2">
	<path fill="#4C3C3C" d="M123.191,204.753c-0.252,0.432-0.773,0.722-1.562,0.871c-0.729,0.223-1.784,0.535-3.168,0.937
		c0.564-0.342,0.975-0.736,1.228-1.183c-1.101-0.282-2.075-0.424-2.923-0.424c-3.704,0-7.452,0.707-11.246,2.12
		c-0.044-0.059-0.275-0.208-0.691-0.446c-0.357-0.208-0.535-0.372-0.535-0.491c0-0.045,0.029-0.104,0.089-0.179v-0.268
		c0.208-0.372,0.976-0.811,2.298-1.316l-0.758,1.026c1.354-0.491,3.502-0.974,6.447-1.45c2.871-0.46,5.065-0.691,6.583-0.691
		c0.788,0,1.569,0.104,2.343,0.312C122.291,203.854,122.924,204.248,123.191,204.753z M117.903,194.825
		c0,0.253-0.223,0.461-0.67,0.625c-0.163,0.03-0.401,0.089-0.714,0.178c-0.49,0.164-1.122,0.417-1.896,0.758
		c-1.309,0.67-2.633,1.339-3.971,2.009c0.669-0.61,1.293-1.22,1.874-1.83c-0.253,0.03-0.499,0.044-0.737,0.044
		c-1.621,0-2.759-0.379-3.414-1.138h0.76c1.012,0,2.205-0.271,3.581-0.814s2.302-0.814,2.777-0.814c0.433,0,0.9,0.075,1.406,0.223
		C117.568,194.259,117.903,194.512,117.903,194.825z"/>
	<path fill="#4C3C3C" d="M119.332,222.648c0,0.714-0.164,1.733-0.492,3.057c-0.371,1.502-1.025,2.73-1.963,3.682
		c-1.056,1.056-2.313,1.584-3.771,1.584c-0.936,0-1.777-0.237-2.521-0.714c-1.204-0.758-2.038-1.814-2.499-3.168
		c-0.342-1.027-0.513-2.38-0.513-4.061c0-1.294,0.229-2.559,0.691-3.793c0.521-1.369,1.23-2.41,2.13-3.124
		c0.9-0.714,2.064-1.152,3.492-1.316c0.164,0.059,0.332,0.123,0.502,0.189c0.172,0.067,0.309,0.198,0.414,0.391
		c0.55,0,0.967,0.097,1.248,0.29c0.045,0.03,0.343,0.32,0.893,0.87c0.238,0.208,0.588,0.536,1.049,0.982
		c0.417,0.476,0.752,1.294,1.004,2.454C119.221,220.938,119.332,221.831,119.332,222.648z M117.592,221.756
		c0-1.146-0.291-2.209-0.871-3.19c-0.625-1.042-1.457-1.733-2.499-2.075c-0.253,0.119-0.651,0.234-1.193,0.346
		c-0.543,0.112-0.94,0.227-1.194,0.346c-0.521,0.238-1.033,0.751-1.539,1.54c-0.446,0.714-0.736,1.391-0.871,2.03
		c-0.088,0.401-0.133,0.937-0.133,1.606c0,1.22,0.074,2.164,0.223,2.833c0.209,1.026,0.551,1.897,1.026,2.611
		c0.64,0.907,1.398,1.361,2.276,1.361c0.817,0,1.584-0.245,2.298-0.736c0.848-0.58,1.458-1.361,1.829-2.343
		c0.283-0.729,0.469-1.726,0.559-2.99C117.562,222.098,117.592,221.652,117.592,221.756z"/>
	<path fill="#4C3C3C" d="M123.303,245.072c-0.029,0.238-0.208,0.417-0.535,0.536c-0.268,0.075-0.674,0.201-1.217,0.379
		s-1.074,0.365-1.596,0.558c-0.877,0.327-1.367,0.483-1.472,0.469c0.565-0.417,0.981-0.87,1.249-1.361
		c-0.758-0.283-1.621-0.424-2.588-0.424c-1.442,0-3.287,0.268-5.533,0.803c-2.38,0.551-4.113,1.168-5.199,1.852l-0.156,0.312
		c-0.089,0.015-0.179,0.022-0.268,0.022c-0.371,0-0.785-0.197-1.238-0.591c-0.453-0.395-0.68-0.777-0.68-1.149
		c0-0.268,0.111-0.483,0.334-0.647c0.357,0.268,0.773,0.402,1.249,0.402c0.224,0,0.388-0.015,0.491-0.045
		c0.402-0.164,1.005-0.394,1.807-0.691c1.161-0.357,2.671-0.729,4.53-1.116c3.021-0.625,5.185-0.937,6.493-0.937
		C120.879,243.444,122.32,243.987,123.303,245.072z"/>
	<path fill="#4C3C3C" d="M123.994,276.02v0.156c-0.312,0.253-0.677,0.379-1.093,0.379c-0.015,0-0.603-0.096-1.763-0.29
		c-0.432-0.089-0.93-0.134-1.494-0.134c-0.209,0-0.511,0.022-0.904,0.067c-0.395,0.044-0.688,0.067-0.882,0.067l-0.178-0.022
		l1.628-0.937c-0.981-0.387-1.971-0.581-2.967-0.581c-1.562,0-3.652,0.328-6.27,0.982c-2.203,0.565-4.24,1.205-6.114,1.919
		c-0.282-0.208-0.438-0.484-0.468-0.826c-0.03-0.342-0.061-0.684-0.09-1.026c0.327-0.342,0.691-0.692,1.094-1.049
		c0.029,0.179,0.062,0.361,0.1,0.547s0.108,0.346,0.212,0.479c1.443-0.357,3.109-0.811,4.999-1.361
		c-0.387-0.595-0.707-1.324-0.96-2.187s-0.38-1.644-0.38-2.343c0-0.133,0.008-0.252,0.023-0.357
		c0.698-1.041,2.186-1.993,4.462-2.856c0.372-1.056,0.774-2.275,1.204-3.659c-1.309,0.328-2.617,0.655-3.926,0.981
		c-0.551,0-1.064-0.595-1.54-1.785l0.067-0.111l1.025,0.379c0.491-0.134,1.234-0.349,2.232-0.647
		c0.504-0.193,1.271-0.483,2.297-0.87c0.492-0.179,0.848-0.268,1.072-0.268c0.936,0,1.568,0.334,1.896,1.004
		c-0.848,0.937-1.399,1.606-1.652,2.008c-0.4,0.625-0.698,1.443-0.893,2.455c0.953,0,1.622,0.044,2.008,0.133
		c0.701,0.164,1.235,0.528,1.607,1.094c-0.059,0.208-0.148,0.528-0.268,0.959c-0.029,0.343-0.074,0.848-0.135,1.518
		c-0.104,1.056-0.267,2.112-0.49,3.168c1.131,0.015,1.994,0.104,2.589,0.268C122.723,274.004,124.039,274.919,123.994,276.02z
		 M112.728,267.987c-1.058,0.283-1.763,0.499-2.12,0.647c-0.908,0.357-1.451,0.781-1.629,1.272c0.119,1.443,0.595,2.484,1.428,3.124
		c0.357-0.61,0.758-1.442,1.205-2.499C112.161,269.237,112.533,268.389,112.728,267.987z M116.318,267.787
		c-0.342-0.134-0.734-0.201-1.182-0.201c-0.297,0-0.617,0.03-0.959,0.089c-0.849,2.648-1.785,4.738-2.812,6.27
		c1.146-0.268,2.521-0.543,4.128-0.826C116.044,272.167,116.318,270.39,116.318,267.787z"/>
	<path fill="#4C3C3C" d="M122.901,294.141c0,0.491-0.356,0.736-1.071,0.736c-0.357,0-1.015-0.07-1.975-0.212
		c-0.959-0.141-1.975-0.212-3.046-0.212c-0.624,0-1.249,0.03-1.874,0.089c0,1.785-0.037,3.072-0.111,3.86
		c-0.164,1.785-0.514,2.975-1.049,3.57c-0.312-0.818-0.469-2.87-0.469-6.158c0-0.447-0.008-0.766-0.021-0.959
		c-0.938,0.074-2.002,0.275-3.191,0.602c-1.026,0.312-2.053,0.625-3.078,0.938c-0.61,0.178-1.503,0.461-2.679,0.848
		c-0.163-0.148-0.319-0.595-0.468-1.339c0.281-0.491,0.721-0.803,1.316-0.937l0.245,0.089c0.119,0.268,0.298,0.454,0.536,0.558
		c2.588-1.056,5.049-1.755,7.385-2.097c-0.045-0.521-0.066-1.971-0.066-4.351c-0.789,0.104-1.733,0.357-2.834,0.759
		c-0.908,0.372-1.814,0.736-2.723,1.093c-0.416,0-0.684-0.394-0.803-1.183c0.209-0.238,0.498-0.357,0.87-0.357l0.469,0.268
		c1.845-0.729,3.614-1.368,5.311-1.918v-0.156c0.015-0.089-0.03-0.35-0.134-0.781l-0.893-0.201c0.029-0.387,0.252-0.639,0.67-0.759
		c0.475-0.148,0.758-0.327,0.848-0.536h-0.113c-0.921-0.029-2.938,0.618-6.046,1.941c-0.267-0.134-0.431-0.29-0.491-0.468
		c-0.104-0.238-0.193-0.394-0.267-0.469c0.104-0.178,0.646-0.915,1.628-2.209c0.714-0.937,1.161-1.726,1.339-2.365
		c-0.192-0.238-0.528-0.454-1.004-0.647l0.089-0.156h0.402c1.457-0.044,2.186,0.275,2.186,0.959c0,0.61-0.527,1.651-1.584,3.124
		c0.343-0.09,1.474-0.476,3.392-1.161c1.548-0.55,2.626-0.825,3.235-0.825c1.264,0,1.912,0.32,1.941,0.959
		c-0.119,0.283-0.297,0.45-0.535,0.501c-0.238,0.052-0.603,0.138-1.094,0.257c-0.297,0.089-1.234,0.528-2.811,1.316
		c0.178,0.089,0.363,0.186,0.558,0.29c0.192,0.104,0.29,0.268,0.29,0.491c0,0.104-0.03,0.223-0.09,0.357l0.022,0.245
		c1.25-0.03,1.882-0.044,1.896-0.044c0.923,0,1.511,0.246,1.763,0.736c-0.044,0.193-0.172,0.35-0.379,0.469
		c-0.208,0.119-0.417,0.178-0.625,0.178c-0.178,0-0.449-0.015-0.814-0.044c-0.364-0.03-0.643-0.044-0.837-0.044
		c-0.356,0-0.721,0.015-1.093,0.044c-0.029,0.148-0.045,0.364-0.045,0.647v3.659c0.893-0.089,1.785-0.179,2.678-0.268
		c1.071-0.119,1.971-0.179,2.699-0.179c0.551,0,1.079,0.112,1.585,0.335C122.582,293.309,122.901,293.68,122.901,294.141z
		 M110.897,292.446c0,0.387-0.38,0.714-1.138,0.981c-0.521,0.134-1.049,0.275-1.584,0.424c0.193-0.268,0.424-0.677,0.69-1.227
		c-0.147-0.327-0.445-0.632-0.892-0.915l0.134-0.022c0.804,0,1.339,0.015,1.606,0.044
		C110.503,291.835,110.897,292.074,110.897,292.446z"/>
	<path fill="#4C3C3C" d="M123.058,313.817c0,0.237-0.149,0.432-0.446,0.579c-0.238,0.12-0.49,0.18-0.759,0.18
		c-0.06,0-0.395-0.074-1.004-0.223c-1.934-0.447-3.519-0.67-4.753-0.67c-0.535,0-1.1,0.037-1.695,0.111
		c0,6.471-0.312,10.004-0.938,10.599c-0.58-1.474-0.848-4.895-0.803-10.265c-3.764,0.834-6.656,1.815-8.68,2.946l-0.357-0.157
		c-0.089-0.357-0.133-0.668-0.133-0.937c0-0.64,0.349-1.189,1.048-1.651l0.156,0.09c-0.015,0.133-0.022,0.26-0.022,0.379
		c0,0.18,0.016,0.342,0.045,0.49c3.168-1.293,5.875-2.164,8.121-2.609c0-0.432,0.008-1.083,0.023-1.953
		c0.014-0.869,0.021-1.521,0.021-1.951c0-0.893-0.037-1.607-0.111-2.143c-0.09-0.074-0.201-0.111-0.334-0.111
		c-0.194,0-0.424,0.066-0.692,0.2l-0.111-0.044c0.045-0.357,0.233-0.773,0.568-1.25s0.659-0.759,0.971-0.848l-0.021,0.045
		c0.46,0.237,0.802,0.432,1.026,0.58c0.4,0.282,0.639,0.572,0.714,0.869l-0.29,0.402c-0.134,0.981-0.201,2.967-0.201,5.957
		c0.596-0.134,1.479-0.201,2.655-0.201c0.684,0,1.189,0.023,1.517,0.067c-0.281-0.342-0.58-0.729-0.892-1.16
		c0.937,0.372,1.8,0.685,2.588,0.937c1.026,0.328,1.584,0.514,1.674,0.559C122.686,312.962,123.058,313.356,123.058,313.817z"/>
	<path fill="#4C3C3C" d="M123.303,336.465c-0.029,0.238-0.208,0.416-0.535,0.535c-0.268,0.074-0.674,0.2-1.217,0.379
		s-1.074,0.365-1.596,0.559c-0.877,0.326-1.367,0.482-1.472,0.469c0.565-0.417,0.981-0.871,1.249-1.361
		c-0.758-0.283-1.621-0.424-2.588-0.424c-1.442,0-3.287,0.268-5.533,0.803c-2.38,0.551-4.113,1.168-5.199,1.852l-0.156,0.312
		c-0.089,0.016-0.179,0.022-0.268,0.022c-0.371,0-0.785-0.196-1.238-0.591s-0.68-0.777-0.68-1.149c0-0.269,0.111-0.483,0.334-0.646
		c0.357,0.267,0.773,0.401,1.249,0.401c0.224,0,0.388-0.016,0.491-0.045c0.402-0.164,1.005-0.395,1.807-0.691
		c1.161-0.357,2.671-0.729,4.53-1.115c3.021-0.625,5.185-0.938,6.493-0.938C120.879,334.836,122.32,335.379,123.303,336.465z"/>
	<path fill="#4C3C3C" d="M114.98,355.698c-0.521,0.461-1.041,0.915-1.562,1.36c-0.639,0.654-0.959,1.22-0.959,1.695
		c0,0.268,0.104,0.506,0.312,0.715c0.104,0.238,0.514,0.564,1.228,0.982c0.64,0.356,0.96,0.721,0.96,1.092
		c0,0.209-0.09,0.373-0.269,0.492c-0.952,0.58-2.372,0.98-4.261,1.205l-0.135-0.067c0.045-0.061,0.469-0.356,1.271-0.894
		c0.536-0.371,0.803-0.795,0.803-1.271c0-0.356-0.188-0.752-0.568-1.182c-0.379-0.433-0.569-0.767-0.569-1.004
		c0-0.164,0.235-0.588,0.703-1.273c0.469-0.684,0.703-1.137,0.703-1.359c0-0.076-0.015-0.143-0.044-0.201
		c-1.28,0.4-2.143,1.168-2.588,2.298c-0.18,0.446-0.402,1.613-0.67,3.503c-0.254,1.726-0.47,2.96-0.647,3.703
		c-0.387,1.533-0.907,2.627-1.562,3.28l-0.134,0.022c-0.208,0-0.395-0.081-0.557-0.245c-0.09-0.208-0.135-0.438-0.135-0.692
		c0-0.416,0.215-1.189,0.647-2.319l0.379-0.046c0.952-2.766,1.429-5.859,1.429-9.281c0-0.684-0.023-1.354-0.067-2.008l0.089,0.021
		c0.299,0.357,0.521,0.826,0.67,1.406c0.119,0.521,0.238,1.034,0.357,1.54c0.192-0.343,0.59-0.778,1.193-1.306
		c0.602-0.527,1-0.963,1.193-1.306l0.335-0.2c0.714,0.133,1.138,0.223,1.271,0.268c0.476,0.133,0.856,0.334,1.138,0.603
		L114.98,355.698z M118.863,367.456c0,1.339-0.357,2.307-1.072,2.901l-0.534-0.112c-0.357-0.253-0.685-0.572-0.982-0.959
		c-0.401-0.491-0.677-0.812-0.825-0.959c-0.759-0.714-1.205-1.146-1.339-1.295c-0.356-0.387-0.706-0.899-1.049-1.54h0.134
		c1.547,0.967,2.73,1.421,3.547,1.362h0.135l0.09-0.447c0-0.327-0.038-0.766-0.111-1.316c-0.104-0.759-0.156-1.204-0.156-1.339
		c-0.313-3.286-0.469-7.124-0.469-11.513c-0.119-0.179-0.454-0.305-1.004-0.38c-0.506,0.12-1.265,0.357-2.276,0.715
		c-0.462,0.178-0.915,0.357-1.362,0.535c-0.534,0.209-0.988,0.343-1.359,0.401c1.383-1.22,3.152-2.119,5.31-2.7
		c1.175,0.164,2.157,0.722,2.945,1.674c-0.089,0.447-0.32,0.736-0.692,0.871c-0.088,0.416-0.133,0.818-0.133,1.204
		c0,3.214,0.171,6.047,0.514,8.501c0.029,0.18,0.163,0.93,0.4,2.254C118.766,366.311,118.863,367.025,118.863,367.456z"/>
	<path fill="#4C3C3C" d="M110.295,381.49c-0.074,0.148-0.253,0.306-0.535,0.469c-0.283,0.164-0.461,0.335-0.535,0.514
		c-0.18,0.61-0.469,1.518-0.871,2.723c-0.298,0.773-0.736,1.665-1.316,2.677c-0.684,1.22-1.25,2.001-1.695,2.344
		c-0.164,0.134-0.38,0.2-0.647,0.2c-0.118,0-0.237-0.029-0.357-0.09c-0.342-0.595-0.513-1.145-0.513-1.65
		c0-0.298,0.045-0.64,0.134-1.026l0.134-0.045c0.193,0.476,0.439,0.722,0.736,0.737c1.473-1.815,2.499-4.01,3.079-6.583
		l-0.669-0.825v-0.111c-0.016-0.238,0.082-0.402,0.289-0.491c0.67,0.089,1.198,0.192,1.585,0.312
		C109.811,380.852,110.205,381.135,110.295,381.49z M124.084,389.457l-0.066,0.111c-0.967,0.401-1.666,0.602-2.098,0.602
		c-2.307,0-4.485-1.628-6.537-4.886c-1.459-2.306-2.492-4.344-3.103-6.114c-0.356-1.025-0.625-1.695-0.803-2.008
		c-0.432-0.744-0.981-1.16-1.651-1.25c0.104-0.475,0.402-0.714,0.893-0.714c0.818,0,1.503,0.447,2.053,1.339
		c0.268,0.447,0.603,1.258,1.004,2.433c0.461,1.368,1.16,2.647,2.098,3.838c1.101,1.428,2.187,2.528,3.258,3.302
		c0.55,0.417,1.212,0.833,1.985,1.25c0.55,0.283,1.101,0.559,1.651,0.825C123.317,388.497,123.756,388.921,124.084,389.457z"/>
	<path fill="#4C3C3C" d="M119.107,400.836c-0.015,0.104-0.186,0.342-0.512,0.714c-0.328,0.372-0.491,0.849-0.491,1.429
		c0,3.762,0.111,6.091,0.335,6.983c-0.134,1.041-0.246,1.71-0.335,2.009c-0.224,0.758-0.603,1.293-1.138,1.605
		c-0.209-0.237-0.453-0.736-0.736-1.495c-0.312-0.848-0.543-1.391-0.692-1.628l0.046-0.156l0.668,0.021
		c0.075-0.223,0.112-0.632,0.112-1.227c0-0.238-0.112-3.317-0.335-9.237c-0.58-0.461-1.027-0.692-1.339-0.692
		c-0.759,0-1.777,0.327-3.057,0.982c-1.323,0.67-2.313,1.033-2.968,1.094c0.104,0.461,0.156,0.921,0.156,1.383
		c0,0.387-0.025,0.982-0.078,1.785s-0.078,1.404-0.078,1.807c0,0.432,0.022,1.074,0.066,1.931c0.045,0.854,0.066,1.499,0.066,1.93
		c0,0.491,0.053,0.968,0.157,1.429c0.772-0.625,1.874-2.634,3.302-6.025c-0.564,0.238-1.145,0.447-1.74,0.625
		c-0.773-0.178-1.189-0.52-1.249-1.025l3.682-1.54c0.743,0.223,1.331,0.506,1.763,0.848c-0.149,0.356-0.484,0.825-1.004,1.405
		c-0.402,0.432-0.796,0.871-1.183,1.316c-0.952,1.189-1.777,2.596-2.478,4.217c0.536-0.178,1.064-0.363,1.585-0.557
		c0.624-0.193,1.175-0.291,1.651-0.291c0.639,0,1.227,0.238,1.762,0.715c0.061,0.133,0.09,0.252,0.09,0.356
		c0,0.193-0.09,0.343-0.268,0.446c-0.477-0.134-0.975-0.201-1.495-0.201c-1.28,0-2.67,0.312-4.173,0.938l-0.289-0.334
		c-0.09,0.178-0.201,0.326-0.336,0.445c-0.49-0.164-0.869-0.521-1.137-1.07c-0.223-0.461-0.336-0.982-0.336-1.562
		c0-0.104,0.053-1.056,0.156-2.855c0.135-2.38,0.201-4.099,0.201-5.154c0-0.224-0.059-0.543-0.178-0.959
		c-0.119-0.418-0.18-0.737-0.18-0.96c0-0.075,0.008-0.149,0.022-0.224h0.112l1.16,0.76c2.23-1.846,4.5-2.768,6.805-2.768
		c0.521,0,1.197,0.312,2.03,0.938c0.358,0.252,0.714,0.509,1.072,0.77C118.662,400.014,118.93,400.375,119.107,400.836z"/>
	<path fill="#4C3C3C" d="M86.756,346.713c-0.773,0.58-1.645,0.871-2.611,0.871c-1.666,0-3.764-1.48-6.292-4.44
		c-0.282-0.327-0.736-0.796-1.361-1.405c0.03,0.743,0.104,1.926,0.224,3.547c0.074,1.057,0.111,1.569,0.111,1.54
		c0,0.476-0.156,1.049-0.469,1.718c-0.268,0.595-0.58,1.101-0.938,1.518h-0.089c-0.312,0.015-0.595-0.189-0.848-0.614
		c-0.253-0.424-0.625-1.09-1.116-1.996c-0.238-0.358-0.557-0.923-0.959-1.696c0.922,0.624,1.666,0.952,2.231,0.982
		c0.535-0.344,0.804-1.793,0.804-4.352c0-0.357-0.016-0.685-0.045-0.982c-0.699,0.641-1.532,1.467-2.5,2.477
		c-0.817,0.908-1.643,1.822-2.477,2.745c-0.967,1.026-1.926,1.792-2.877,2.298c-0.299-0.252-0.447-0.535-0.447-0.848l0.067-0.67
		c0.015-0.073,0.229-0.363,0.647-0.869c0.46-0.566,0.729-0.908,0.803-1.026c-0.015,0.059-0.03,0.431-0.045,1.115
		c1.814-1.458,3.689-3.413,5.623-5.868c-0.535,0.148-1.339,0.334-2.41,0.559l-0.469-0.201c1.324-0.729,2.686-1.279,4.084-1.652
		v-1.539c-0.283,0.089-0.707,0.231-1.272,0.424c-0.788,0.253-1.621,0.379-2.499,0.379c-0.104-0.029-0.223-0.066-0.357-0.111
		c0.908-0.506,2.284-1.219,4.129-2.142v-0.692c-1.488,0.238-3.006,0.781-4.553,1.63l-0.334-0.022
		c1.234-1.012,2.863-1.912,4.887-2.699v-1.429c-0.715,0.104-1.777,0.632-3.191,1.585c-1.518,1.025-2.275,1.844-2.275,2.453
		c0,0.193,0.186,0.744,0.558,1.652c0.372,0.906,0.55,1.561,0.536,1.963v0.089l-0.201,0.29c-0.982-0.564-1.473-1.555-1.473-2.967
		c0-1.488,1.346-3.124,4.039-4.909c-1.161,0.09-1.793,0.134-1.897,0.134c-0.58,0-1.004-0.163-1.271-0.491
		c0.401-0.104,1.004-0.282,1.808-0.535c0.967-0.432,2.142-0.915,3.525-1.45v-0.312c0.014-0.596-0.053-1.004-0.201-1.227
		l-0.848-0.715l0.714-0.4c0.118-0.016,0.237-0.023,0.356-0.023c0.551,0,1.071,0.261,1.562,0.781
		c0.015,0.044,0.021,0.096,0.021,0.156c0,0.119-0.018,0.309-0.055,0.568c-0.037,0.261-0.057,0.457-0.057,0.592
		c0,0.09,0.008,0.186,0.022,0.291c0.625-0.135,1.241-0.201,1.853-0.201c0.371,0,0.721,0.066,1.049,0.201
		c0.432,0.178,0.639,0.43,0.624,0.758v0.09c-0.179,0.148-0.811,0.371-1.896,0.668c-1.31,0.344-2.046,0.543-2.21,0.604v1.45
		c1.012-0.327,2.357-0.491,4.039-0.491c0.327,0,0.78,0.156,1.36,0.469c0.535,0.282,0.93,0.555,1.184,0.814
		c0.252,0.26,0.393,0.576,0.424,0.948l-0.201,0.201c-0.893,0.253-1.614,1.13-2.164,2.632c-0.58,0.61-1.228,0.915-1.941,0.915
		c-0.848,0-1.629,0.09-2.344,0.269c1.652,1.918,3.221,3.22,4.709,3.904c0.893,0.387,1.785,0.766,2.678,1.139
		c1.025,0.46,1.866,0.943,2.521,1.449V346.713z M80.396,335.4c-0.477-0.208-1.049-0.312-1.719-0.312
		c-0.758,0-1.487,0.104-2.187,0.312v0.826c0.372-0.164,0.781-0.246,1.228-0.246c0.848,0,1.354,0.171,1.518,0.514
		c-0.283,0.282-0.723,0.52-1.316,0.715c-0.773,0.237-1.25,0.4-1.429,0.49v1.428c0.729-0.254,1.532-0.402,2.409-0.446
		C79.704,337.654,80.203,336.561,80.396,335.4z"/>
	<path fill="#4C3C3C" d="M85.996,356.151c0,0.372-0.252,0.558-0.758,0.558c-0.224,0-0.528-0.044-0.915-0.134
		c-0.58-0.134-0.886-0.2-0.915-0.2c-0.67-0.119-1.719-0.18-3.146-0.18c-1.234,0-2.253,0.067-3.057,0.201
		c-1.293,0.223-2.908,0.662-4.842,1.316c-2.053,0.684-3.577,1.332-4.574,1.941l-0.624-0.2l-0.603-1.138
		c0.297-0.432,0.609-0.707,0.938-0.826l0.713,0.625c2.41-1.012,4.887-1.845,7.431-2.499c-0.476-0.119-0.981-0.261-1.518-0.424
		c0.714-0.075,1.153-0.38,1.317-0.915l-1.317-1.272l0.112-0.2l0.87-0.111c0.804,0,1.651,0.476,2.544,1.428
		c0.074,0.297,0.111,0.624,0.111,0.982c1.011-0.135,1.911-0.269,2.699-0.402c0.863-0.164,1.25-0.246,1.16-0.246
		c0.938,0,1.808,0.104,2.611,0.313C85.408,355.08,85.996,355.541,85.996,356.151z M71.493,366.215
		c-0.074,0.326-0.319,0.759-0.735,1.293c-0.611,0.789-0.916,1.191-0.916,1.206c-0.104,0.223-0.264,0.523-0.479,0.903
		c-0.217,0.379-0.503,0.643-0.859,0.792c-0.461-0.327-0.736-1.019-0.826-2.075l0.803-1.518l0.492,0.715
		C70.088,367.084,70.928,366.646,71.493,366.215z M81.758,359.633c0,0.237-0.098,0.475-0.291,0.714
		c-1.057,0.134-2.142,0.788-3.258,1.964c0.521,0.223,0.811,0.43,0.871,0.624c-0.104,0.461-0.715,0.854-1.83,1.183
		c0.06,0.818,0.156,2.045,0.29,3.682c0,0.09,0.022,0.256,0.067,0.502c0.045,0.245,0.066,0.428,0.066,0.547
		c0,0.252-0.008,0.513-0.021,0.781c-0.016,0.312-0.258,0.717-0.726,1.215c-0.469,0.499-0.874,0.837-1.216,1.016
		c-0.268-0.104-0.529-0.327-0.781-0.67c-0.387-0.55-0.588-0.828-0.603-0.836s-0.454-0.375-1.316-1.105
		c-0.179-0.148-0.401-0.394-0.669-0.735c1.189,0.312,2.066,0.468,2.633,0.468c0.505,0,0.855-0.141,1.049-0.424
		c0.104-0.416,0.156-1.086,0.156-2.008c0-0.282-0.008-0.706-0.023-1.271c0-0.58,0-1.012,0-1.294l-1.204,0.269
		c-0.224,0.043-0.335-0.12-0.335-0.492c0-0.268,0.097-0.505,0.29-0.715c1.859-0.951,3.19-2.178,3.993-3.681
		c-0.193-0.029-0.387-0.044-0.579-0.044c-0.714,0-1.569,0.17-2.565,0.512c-1.086,0.357-1.83,0.768-2.232,1.229
		c-0.208,0.074-0.379,0.424-0.513,1.049s-0.282,0.988-0.446,1.093h-0.09c-0.223,0.015-0.42-0.09-0.591-0.312
		s-0.257-0.454-0.257-0.692c0-0.996,0.342-1.851,1.027-2.564l0.469,0.736c0.832-0.596,1.832-1.082,3-1.462s2.258-0.569,3.27-0.569
		c0.088,0,0.223,0,0.4,0c0.193,0.016,0.336,0.022,0.425,0.022c0.312,0,0.647,0.138,1.004,0.413
		C81.578,359.048,81.758,359.335,81.758,359.633z M85.595,368.602c0,0.641-0.26,0.96-0.78,0.96c-0.357,0-0.938-0.216-1.74-0.647
		c-0.953-0.506-1.57-0.795-1.853-0.87l-0.067-0.134h0.135c0.476,0.015,0.996-0.126,1.562-0.424c0.044-0.089,0.067-0.179,0.067-0.268
		c0-0.327-0.209-0.699-0.625-1.116c-0.343-0.342-0.699-0.61-1.071-0.803l0.089-0.112c0.938,0.045,1.859,0.387,2.768,1.027
		C85.09,366.928,85.595,367.725,85.595,368.602z"/>
	<path fill="#4C3C3C" d="M77.585,384.667c0,0.401-0.142,0.77-0.425,1.104c-0.282,0.334-0.624,0.502-1.025,0.502
		c-0.447,0-0.841-0.16-1.183-0.48c-0.343-0.318-0.514-0.702-0.514-1.148c0-0.402,0.134-0.762,0.401-1.082
		c0.269-0.319,0.596-0.479,0.982-0.479c0.461,0,0.869,0.148,1.227,0.446C77.406,383.826,77.585,384.205,77.585,384.667z"/>
	<path fill="#4C3C3C" d="M73.643,406.243c-0.074,0.149-0.253,0.305-0.535,0.468c-0.283,0.164-0.461,0.336-0.535,0.514
		c-0.18,0.609-0.469,1.518-0.871,2.723c-0.297,0.773-0.736,1.666-1.316,2.678c-0.684,1.219-1.249,2-1.695,2.342
		c-0.164,0.135-0.379,0.201-0.646,0.201c-0.119,0-0.238-0.029-0.357-0.09c-0.343-0.594-0.514-1.145-0.514-1.65
		c0-0.298,0.045-0.64,0.135-1.027l0.133-0.044c0.193,0.477,0.439,0.722,0.736,0.736c1.473-1.814,2.5-4.009,3.08-6.581l-0.67-0.826
		v-0.112c-0.015-0.237,0.082-0.401,0.29-0.491c0.669,0.09,1.197,0.194,1.585,0.313C73.159,405.604,73.554,405.887,73.643,406.243z
		 M87.432,414.209l-0.066,0.111c-0.967,0.401-1.666,0.602-2.098,0.602c-2.307,0-4.484-1.628-6.537-4.887
		c-1.459-2.305-2.492-4.343-3.102-6.113c-0.357-1.025-0.625-1.695-0.803-2.008c-0.432-0.743-0.982-1.16-1.652-1.249
		c0.104-0.476,0.402-0.714,0.893-0.714c0.818,0,1.503,0.445,2.053,1.339c0.268,0.445,0.604,1.257,1.004,2.433
		c0.461,1.368,1.16,2.646,2.098,3.837c1.102,1.428,2.188,2.528,3.258,3.302c0.551,0.417,1.213,0.834,1.986,1.25
		c0.55,0.283,1.1,0.558,1.65,0.826C86.666,413.248,87.104,413.674,87.432,414.209z"/>
	<path fill="#4C3C3C" d="M85.93,425.767c0,0.342-0.327,0.513-0.982,0.513c-0.119,0-0.713-0.123-1.784-0.367
		c-1.071-0.246-2.217-0.368-3.437-0.368c-0.758,0-1.443,0.073-2.053,0.223v1.003c1.146-0.073,1.904-0.11,2.275-0.11
		c0.893,0,1.733,0.245,2.521,0.735l0.179,1.006c-0.148,0.252-0.394,0.914-0.735,1.984c-0.299,0.982-0.536,1.562-0.715,1.74
		c-0.178,0.18-0.365,0.269-0.558,0.269c-0.237,0-0.536-0.134-0.893-0.402c-0.193-0.044-0.387-0.067-0.58-0.067
		c-0.55,0-1.049,0.157-1.495,0.47v1.115c0.104-0.03,0.215-0.045,0.335-0.045c0.387,0,1.011,0.142,1.874,0.424l0.156,0.269
		c-0.119,0.237-0.395,0.483-0.826,0.736c-0.326,0.193-0.662,0.379-1.004,0.558c-0.401,0.268-0.825,0.841-1.271,1.718l-0.045,0.535
		c0.283-0.015,0.871-0.059,1.764-0.134c0.729-0.059,1.309-0.089,1.74-0.089c0.594,0,1.241,0.141,1.941,0.424
		c0.861,0.342,1.293,0.759,1.293,1.25c0,0.416-0.289,0.625-0.869,0.625c-0.164,0-0.855-0.156-2.075-0.469
		c-0.878-0.238-1.912-0.357-3.102-0.357c-1.249,0-2.573,0.127-3.972,0.379c-1.562,0.268-2.834,0.64-3.815,1.116
		c-0.268-0.148-0.462-0.468-0.58-0.959l0.179-0.313c0.207-0.015,0.52-0.037,0.938-0.066c0.594-0.045,1.278-0.238,2.052-0.58
		s1.347-0.722,1.718-1.139c-0.074-0.223-0.379-0.431-0.914-0.623c-0.535-0.195-0.804-0.351-0.804-0.47
		c0-0.595,0.543-1.115,1.629-1.562c0.788-0.283,1.577-0.565,2.365-0.849v-1.159c-1.354,0.238-2.046,0.356-2.075,0.356
		c-0.253,0-0.595-0.097-1.026-0.29c0.669-0.179,1.212-0.35,1.629-0.514c0.312-0.148,0.804-0.349,1.473-0.602v-1.25
		c-0.907,0.238-1.8,0.402-2.678,0.491l-0.424-0.201c0.685-0.312,1.718-0.737,3.102-1.271v-1.339
		c-0.818,0.074-1.792,0.35-2.923,0.825l-0.603,0.022c0.58-0.461,1.487-0.922,2.722-1.383c0.193-0.061,0.461-0.164,0.804-0.313
		v-1.003c-3.511,0.713-6.084,1.45-7.72,2.209c-0.312,0.162-0.797,0.387-1.451,0.668l-0.468-0.133l-0.022-0.135
		c0-0.312,0.193-0.639,0.58-0.981c0.297-0.282,0.625-0.506,0.981-0.669l0.245,0.134l0.09,0.312c1.918-0.744,4.508-1.548,7.765-2.409
		c0.03-0.075,0.044-0.143,0.044-0.201c0-0.164-0.104-0.32-0.312-0.469c-0.178-0.089-0.35-0.186-0.512-0.29
		c0.118-0.343,0.46-0.513,1.025-0.513c0.535,0,0.9,0.037,1.094,0.111c0.342,0.148,0.498,0.453,0.469,0.914
		c1.368-0.297,3.004-0.445,4.908-0.445c0.67,0,1.264,0.089,1.785,0.268c0.238,0.089,0.473,0.245,0.703,0.468
		C85.814,425.32,85.93,425.544,85.93,425.767z M80.597,421.549c-0.163,0.075-0.521,0.164-1.071,0.268
		c-0.461,0.09-0.78,0.225-0.959,0.402c-1.057,0.49-2.194,0.945-3.414,1.361c-1.562,0.52-2.736,0.781-3.525,0.781l-0.669-0.135
		c3.332-1.413,5.34-2.559,6.024-3.436v-0.312c0.253-0.149,0.588-0.253,1.004-0.312c0.179,0.178,0.506,0.291,0.982,0.334
		c0.594,0.045,0.967,0.098,1.115,0.156C80.426,420.806,80.597,421.104,80.597,421.549z M72.654,432.482
		c0,0.625-0.149,0.99-0.447,1.094c-0.55-0.312-0.825-1.004-0.825-2.076c0-1.115,0.261-1.918,0.781-2.409l0.179,0.335
		c-0.031,0.193-0.045,0.379-0.045,0.557c0,0.477,0.066,1.064,0.201,1.764C72.602,432.297,72.654,432.543,72.654,432.482z
		 M76.38,434.848c-1.487,0.029-2.559,0.387-3.213,1.07c0,0.119,0.268,0.291,0.804,0.514c0.654,0.254,1.012,0.402,1.07,0.446
		C75.576,436.848,76.023,436.172,76.38,434.848z M80.709,427.863c-0.968-0.252-1.622-0.379-1.964-0.379
		c-0.462,0-0.818,0.111-1.071,0.334v1.139c0.268-0.06,0.521-0.09,0.759-0.09c0.179,0,0.342,0.016,0.491,0.045
		c0.193,0.149,0.289,0.305,0.289,0.469v0.045c-0.342,0.297-0.855,0.543-1.539,0.736v1.183c0.402-0.312,1.139-0.438,2.209-0.38
		C80.329,430.132,80.604,429.099,80.709,427.863z"/>
	<g>
		<g>
			<path fill="#4C3C3C" d="M80.197,312.635c-0.455-0.193-0.909-0.327-1.363-0.402c-0.67-0.089-1.08-0.156-1.23-0.2
				c-0.506-0.163-0.821-0.425-0.947-0.78c0.404-0.715,0.934-1.258,1.59-1.629c0.228-0.135,0.77-0.357,1.629-0.67
				c0.593-0.223,0.99-0.483,1.192-0.781v-0.066c0.013-0.521-0.366-0.975-1.136-1.361c-0.631-0.327-1.199-0.49-1.704-0.49
				c-0.441,0-0.771,0.066-0.984,0.2c0.543,0.55,0.896,1.012,1.06,1.384c-0.024,0.178-0.221,0.513-0.586,1.004
				c-0.441,0.639-0.752,1.131-0.928,1.473c-0.316,0.625-0.473,1.22-0.473,1.784c0,0.343,0.119,0.651,0.359,0.927
				c0.239,0.275,0.518,0.465,0.833,0.568c0.644,0.254,1.28,0.506,1.911,0.76c0.783,0.297,1.439,0.482,1.969,0.558
				c0.178-0.134,0.266-0.321,0.266-0.558c0-0.254-0.044-0.462-0.133-0.625C81.282,313.281,80.84,312.918,80.197,312.635z"/>
			<path fill="#4C3C3C" d="M84.905,306.258c-1.136-0.862-1.913-1.494-2.329-1.896c-0.341-0.312-0.946-1.012-1.816-2.098
				c-0.746-0.922-1.383-1.576-1.913-1.963c0.089-0.401,0.392-0.632,0.909-0.692l0.057-0.29c-0.062-0.431-0.297-0.751-0.701-0.959
				c-0.492-0.268-0.775-0.46-0.852-0.58h-0.095c-0.353-0.03-0.644,0.268-0.87,0.893c0.24,0.357,0.416,0.684,0.529,0.981
				c-0.425,1.868-1.436,3.739-2.014,4.626l-0.133-0.379c-0.114,0.254-0.222,0.477-0.322,0.67c-0.215,0.342-0.436,0.684-0.662,1.025
				c-0.253,0.417-0.379,0.812-0.379,1.184c0,0.461,0.145,0.691,0.436,0.691c0.201,0,0.631-0.565,1.287-1.695
				c0.795-1.398,2.09-4.389,2.317-4.717c0.215,0.016,0.423,0.109,0.625,0.279c0.202,0.172,0.423,0.465,0.663,0.882
				c0.176,0.327,0.359,0.661,0.549,1.004c1.653,3.05,3.004,4.797,4.051,5.243c0.619,0.268,1.218,0.402,1.799,0.402
				c0.379,0,0.738-0.098,1.079-0.291l0.132-0.268C86.697,307.701,85.914,307.017,84.905,306.258z"/>
		</g>
		<path fill="#4C3C3C" d="M75.452,301.299v0.09c-0.104,0.074-0.483,0.253-1.138,0.535c-1.398,0.61-2.276,1.51-2.633,2.7
			c0.044,0.163,0.275,0.312,0.691,0.446c0.521,0.148,0.885,0.32,1.094,0.514c0.387,0.342,0.58,0.877,0.58,1.605
			c0,0.997-0.316,2.262-0.949,3.793c-0.632,1.533-1.297,2.641-1.996,3.324c-0.551,0.536-1.16,0.789-1.83,0.76h-0.179
			c-0.074-0.164-0.118-0.343-0.134-0.535c-0.015-0.149-0.015-0.336,0-0.559c0.016-0.298,0.022-0.483,0.022-0.558
			c0-0.343-0.187-1.071-0.558-2.187c-0.833,1.486-1.904,2.395-3.213,2.723l-0.111-0.023c0.892-1.146,1.807-2.558,2.744-4.239
			c1.012-1.814,1.695-3.347,2.053-4.597l0.357-0.089l0.468,0.513v0.246c0.03,0.729-0.2,1.576-0.691,2.543
			c-0.788,1.562-1.19,2.358-1.205,2.389c0.224,0.758,0.356,1.197,0.401,1.316c0.238,0.564,0.528,0.878,0.871,0.937
			c0.787-0.565,1.442-1.479,1.963-2.744c0.477-1.175,0.714-2.291,0.714-3.347c0-0.596-0.237-1.027-0.714-1.295
			c-0.67-0.371-1.063-0.654-1.183-0.848c0.074-0.268,0.279-0.644,0.614-1.127c0.334-0.482,0.539-0.859,0.613-1.127
			c-0.789,0.224-1.607,0.544-2.455,0.96c-0.758,0.401-1.524,0.804-2.298,1.205c-0.074,0.03-0.171,0.074-0.29,0.134
			c-0.148,0.134-0.371,0.327-0.67,0.58l-0.223-0.246c-0.029-0.178-0.045-0.356-0.045-0.535c0-0.432,0.074-0.729,0.224-0.893
			c0.015-0.014,0.253-0.09,0.714-0.223c0.461-0.193,1.131-0.483,2.008-0.87c1.414-0.61,2.879-1.228,4.396-1.852
			c0.044-0.075,0.126-0.112,0.244-0.112l1.496,0.357C75.37,301.054,75.452,301.165,75.452,301.299z"/>
		<path fill="#4C3C3C" d="M73.578,298.89l-0.09,0.268c-0.387,0.075-0.989,0.331-1.807,0.77c-0.818,0.439-1.361,0.666-1.629,0.681
			l1.004-1.45v-0.089c0.015-0.119-0.138-0.36-0.457-0.725c-0.32-0.364-0.48-0.673-0.48-0.926l0.09-0.112
			c0.431,0.044,0.907,0.171,1.428,0.379c0.387,0.134,0.773,0.26,1.16,0.379C73.229,298.243,73.488,298.518,73.578,298.89z"/>
	</g>
	<g>
		<path fill="#4C3C3C" d="M76.113,451.597c0,4.15-0.304,7.2-0.912,9.147c-0.273,0.894-0.68,1.637-1.216,2.232
			c-0.465-0.238-0.697-0.736-0.697-1.495c0-0.624,0.083-1.361,0.25-2.209c0.191,0.164,0.353,0.356,0.483,0.58
			c0.513-0.61,0.894-2.001,1.145-4.173c0.154-1.487,0.232-3.034,0.232-4.641c0-1.338-0.138-2.112-0.412-2.32h-0.089
			c-0.155,0-0.286,0.111-0.394,0.334c-0.191,0.387-0.405,1.102-0.644,2.143c-0.227,0.922-0.376,1.682-0.447,2.275
			c-0.083,0.654-0.161,1.303-0.232,1.941c-0.095,0.818-0.232,1.428-0.411,1.83c-0.047,0.015-0.096,0.021-0.143,0.021
			c-0.263,0-0.459-0.207-0.59-0.625c-0.061-0.178-0.132-0.527-0.216-1.049c0.251-1.1,0.376-2.119,0.376-3.056l0.77,0.58
			c0.214-1.115,0.465-2.12,0.75-3.013c0.489-1.473,0.961-2.209,1.413-2.209c0.489,0,0.793,0.35,0.912,1.049
			C76.09,449.195,76.113,450.079,76.113,451.597z M78.17,455.256c-0.06,0.773-0.227,1.25-0.5,1.428
			c-0.358-0.252-0.598-0.67-0.716-1.249c0.048-0.387,0.071-0.759,0.071-1.116c0-0.639-0.078-1.249-0.232-1.828h0.34l0.608,0.624
			c0.238-0.58,0.44-1.466,0.608-2.655l0.089,0.446C78.438,451.604,78.35,453.055,78.17,455.256z M80.412,457.376
			c0,2.306-0.221,3.756-0.662,4.351h-0.071c-0.333,0.029-0.501-1.101-0.501-3.391l0.161-9.662v-0.335
			c0.013-0.595-0.071-0.892-0.251-0.892c-0.07,0-0.189,0.081-0.357,0.245c-0.107,0.118-0.215,0.237-0.321,0.356
			c0.06-1.338,0.394-2.008,1.001-2.008c0.334,0,0.596,0.216,0.787,0.646C80.34,447.016,80.412,450.578,80.412,457.376z
			 M83.076,451.932c0,0.268-0.051,0.662-0.152,1.183c-0.101,0.521-0.151,0.907-0.151,1.16c0,0.09,0.009,0.227,0.026,0.412
			c0.018,0.187,0.027,0.324,0.027,0.413c0,0.387-0.041,0.691-0.125,0.914c-0.048,0.016-0.09,0.023-0.125,0.023
			c-0.383,0-0.752-0.453-1.109-1.361v-0.379c0.023-0.685-0.064-1.518-0.268-2.499c0.285,0.073,0.619,0.305,1.001,0.692l0.823-1.585
			C83.059,451.456,83.076,451.798,83.076,451.932z M85.712,446.465c-0.394,0.343-0.638,0.886-0.733,1.629
			c-0.023,0.193-0.035,0.84-0.035,1.941c0,0.982,0.068,2.446,0.205,4.396c0.137,1.947,0.205,3.405,0.205,4.371
			c0,2.798-0.345,4.545-1.036,5.244c-0.405-0.938-0.608-3.279-0.608-7.027c0-0.938,0.039-2.34,0.116-4.207
			c0.077-1.866,0.116-3.269,0.116-4.205l-0.107-1.785c-0.31-0.164-0.5-0.343-0.572-0.535c0.167-0.283,0.489-0.58,0.966-0.893
			c0.322,0.193,0.691,0.334,1.108,0.424L85.712,446.465z"/>
		<path fill="#4C3C3C" d="M72.803,449.604c-0.135,0.18-0.309,0.324-0.525,0.435c-0.215,0.112-0.338,0.19-0.368,0.235
			c-0.118,0.326-0.335,0.781-0.647,1.36c-0.237,0.269-0.461,0.528-0.668,0.781c-0.209,0.253-0.365,0.581-0.469,0.981
			c0.074,0.164,0.111,0.372,0.111,0.625c0,0.625-0.168,1.555-0.502,2.789c-0.336,1.234-0.502,2.164-0.502,2.789l3.302-4.931
			c-0.61,1.517-1.22,3.042-1.829,4.573c-0.744,1.785-1.54,3.213-2.389,4.285c-0.431-0.18-0.646-0.737-0.646-1.674
			c0-0.878,0.238-2.15,0.714-3.816c0.372-1.264,0.751-2.535,1.138-3.815c0.18-0.653,0.372-1.457,0.58-2.409
			c0.016-0.119,0.119-0.483,0.312-1.094c0.18-0.564,0.268-0.877,0.268-0.936c0-0.225-0.163-0.484-0.49-0.781
			c-0.387-0.344-0.609-0.596-0.67-0.76l0.067-0.268c0.491-0.074,0.93-0.148,1.316-0.223
			C71.902,447.945,72.534,448.562,72.803,449.604z"/>
	</g>
</g>
</svg>
