<?xml version="1.0" encoding="utf-8"?>
<!-- Generator: Adobe Illustrator 16.0.0, SVG Export Plug-In . SVG Version: 6.00 Build 0)  -->
<!DOCTYPE svg PUBLIC "-//W3C//DTD SVG 1.1//EN" "http://www.w3.org/Graphics/SVG/1.1/DTD/svg11.dtd">
<svg version="1.1" id="レイヤー_1" xmlns="http://www.w3.org/2000/svg" xmlns:xlink="http://www.w3.org/1999/xlink" x="0px"
	 y="0px" width="305.776px" height="38.558px" viewBox="0 0 305.776 38.558" enable-background="new 0 0 305.776 38.558"
	 xml:space="preserve">
<g>
	<g>
		<path fill="#482B24" d="M60.962,9.844c0,0.503-0.307,1.039-0.919,1.608c-0.109,0.109-0.7,0.416-1.772,0.918
			c-2.013,0.963-3.457,1.969-4.331,3.019c-0.503,0.59-0.875,1.334-1.116,2.231c-1.225,4.769-3.533,8.389-6.923,10.862
			c-0.81,0.59-1.521,1.005-2.133,1.246c-0.481-0.219-0.722-1.039-0.722-2.461c0-0.525,0.153-1.159,0.459-1.902
			c0.416-0.897,0.656-1.499,0.722-1.805l0.164,0.032c0.087,0.853,0.251,1.477,0.492,1.87h0.131c0.394,0.021,0.886-0.143,1.477-0.492
			c2.318-1.443,3.872-4.604,4.659-9.483c-2.407,0.153-3.522,0.23-3.347,0.23c-1.05,0-2.385-0.481-4.003-1.444l0.197-0.164
			c1.838-0.328,3.216-0.602,4.135-0.82c1.75-0.438,3.051-0.93,3.904-1.477c0.044-0.503,0.23-1.608,0.558-3.314
			c0.241-1.378,0.35-2.494,0.328-3.347V4.791C52.333,4.397,51.709,4.2,51.053,4.2l-0.295-0.262c0.24-0.503,0.503-1.022,0.787-1.559
			s0.711-0.804,1.28-0.804c0.087,0,0.219,0.011,0.394,0.033c0.175,0.021,0.306,0.033,0.394,0.033c1.487,0,2.318,0.514,2.494,1.542
			c-0.503,0.547-0.842,1.127-1.017,1.739c-0.044,0.394-0.11,0.963-0.197,1.706c-0.153,0.941-0.383,2.352-0.689,4.233
			c1.071-0.416,1.947-1.028,2.625-1.837l0.164-1.214c0.153,0.11,0.481,0.252,0.984,0.427c1.203,0.175,1.826,0.274,1.87,0.295
			C60.59,8.75,60.962,9.188,60.962,9.844z M67.689,27.398c0,0.592-0.405,0.887-1.214,0.887c-0.656,0-1.465-0.099-2.428-0.295
			c-0.788-0.197-1.575-0.383-2.363-0.559c-0.416-0.021-1.017-0.098-1.805-0.229c1.793-0.306,2.986-0.733,3.577-1.28
			c-0.897-1.246-2.56-2.461-4.987-3.642c-0.328-0.153-0.81-0.405-1.444-0.754l0.262-0.099c2.1,0.044,4.222,0.525,6.366,1.444
			C66.344,24.074,67.689,25.583,67.689,27.398z"/>
		<path fill="#482B24" d="M134.725,10.795c0,0.547-0.766,0.886-2.297,1.017c-0.503,0.438-1.236,0.94-2.198,1.509
			c-1.116,0.635-1.87,1.104-2.264,1.411c0.459,0.328,0.908,0.689,1.345,1.083l0.263,0.984c-0.481,0.569-1.181,0.963-2.1,1.181
			c-0.481,0.066-1.192,0.164-2.133,0.295c-1.488,0.219-3.008,0.481-4.561,0.788l-0.951-0.295c-0.35,0.066-0.673,0.285-0.968,0.656
			c-0.295,0.372-0.891,1.531-1.788,3.479c-1.05,2.297-2.188,3.938-3.413,4.922c-1.312,1.049-3.194,1.76-5.644,2.133l-0.361-0.1
			c2.516-1.728,4.752-3.932,6.71-6.611c1.958-2.679,3.352-5.474,4.184-8.384l-0.525-0.722l1.05-0.656l1.969,0.689
			c-0.569,1.138-0.853,1.859-0.853,2.166c0,0.175,0.021,0.35,0.065,0.525c2.56-0.635,4.441-1.378,5.644-2.231
			c0.94-0.656,2.373-2.089,4.298-4.298c-0.678-0.241-1.39-0.361-2.133-0.361c-1.794,0-4.304,0.558-7.531,1.673
			s-5.551,2.22-6.973,3.314l-0.853-0.131v-0.229c-0.022-0.416,0.077-0.984,0.295-1.707l-0.099-0.722
			c0.438-0.131,1.039-0.481,1.805-1.05l0.558,0.951c1.947-0.831,4.375-1.706,7.284-2.625c3.565-1.137,6.016-1.706,7.35-1.706
			c0.35,0,0.744,0.077,1.181,0.229c0.438,0.153,1.116,0.558,2.035,1.214C134.188,9.931,134.725,10.467,134.725,10.795z
			 M127.637,4.626c-0.262,0.175-0.558,0.274-0.886,0.295c0.7-0.021,0.382-0.033-0.952-0.033c-0.7,0-1.586,0.251-2.658,0.754
			c-0.832,0.438-1.663,0.864-2.494,1.28l1.936-2.428c-0.175-0.306-0.426-0.536-0.754-0.689c-0.328-0.153-0.525-0.273-0.591-0.361
			c-0.153-0.153-0.273-0.394-0.361-0.722s-0.175-0.536-0.263-0.623l0.263-0.558c0.984,0.285,1.969,0.427,2.953,0.427
			c0.591,0,1.148-0.044,1.673-0.131c0.766,0.525,1.422,1.127,1.969,1.805L127.637,4.626z"/>
		<path fill="#482B24" d="M239.167,16.636c-0.152,0.044-0.502,0.175-1.049,0.394c-0.395,0.175-0.82,0.262-1.28,0.262
			c-1.509,0-2.953-0.503-4.331-1.509c-1.006-0.744-2.122-1.881-3.348-3.413c-0.939-1.203-1.881-2.417-2.821-3.642
			c-1.203-1.422-2.593-2.789-4.167-4.102c-1.947,2.428-3.708,4.856-5.283,7.284c-1.771,2.778-2.898,4.496-3.379,5.152
			c-1.379,1.903-2.734,3.413-4.069,4.528l-0.82-0.263c-0.132-0.328-0.196-0.689-0.196-1.083c0-1.094,0.623-2.504,1.869-4.233
			l0.164,0.033c-0.064,0.328-0.098,0.645-0.098,0.951c0,0.307,0.033,0.591,0.098,0.854c1.816-1.728,3.752-4.08,5.809-7.055
			c1.947-2.844,3.479-5.48,4.594-7.908l-0.854-0.131c0.044-0.416,0.514-0.897,1.411-1.444c0.875,0.131,1.618,0.361,2.231,0.689
			l-0.787,1.477c1.137,0.525,2.559,1.641,4.266,3.347c2.23,2.21,3.587,3.49,4.068,3.839c0.088,0.087,1.542,1.017,4.363,2.789
			C237.548,14.7,238.751,15.761,239.167,16.636z M232.08,26.677c0,1.443-0.569,2.143-1.706,2.1h-0.23
			c-0.393-0.35-0.775-0.941-1.148-1.771c-0.415-0.984-0.732-1.619-0.951-1.904c-2.494,0.701-5.436,1.641-8.826,2.822
			c-0.919,0.284-1.838,0.579-2.756,0.887c-1.072,0.371-1.914,0.82-2.527,1.345c-0.525-0.372-0.875-0.94-1.05-1.706l0.229-0.689
			c1.947-0.459,4.572-3.051,7.875-7.776c-2.734,0.918-4.779,1.663-6.136,2.231c-0.634-0.394-1.017-1.105-1.148-2.133
			c3.544-2.406,6.169-4.933,7.875-7.58l-2.265-0.492c0.132-0.241,0.701-0.591,1.707-1.05c1.006-0.459,1.684-0.689,2.034-0.689
			c0.679,0,1.411,0.131,2.198,0.394c1.028,0.35,1.543,0.799,1.543,1.345c0,0.525-0.361,0.788-1.084,0.788
			c-1.181,0-2.931,0.832-5.25,2.494c-1.793,1.312-3.324,2.636-4.594,3.97l0.328,0.164c2.406-0.546,5.086-1.531,8.039-2.953
			c1.379,0.153,2.396,0.471,3.053,0.952c-0.088,0.678-0.449,1.094-1.084,1.247c-0.328,0.065-0.809,0.186-1.443,0.361
			c-0.307,0.087-0.863,0.503-1.674,1.247c-1.29,1.182-2.811,3.14-4.561,5.874c1.903-0.832,4.867-1.695,8.893-2.592
			c-0.635-1.007-1.346-1.805-2.133-2.396l0.033-0.197h0.262c1.443-0.044,2.778,0.47,4.004,1.542
			c0.524,0.481,1.049,1.127,1.574,1.936C231.774,25.365,232.08,26.108,232.08,26.677z"/>
		<path fill="#482B24" d="M252.719,7.087c0,0.416-0.176,0.722-0.525,0.919c-0.438,0.131-1.083,0.394-1.936,0.787
			c-0.285,0.197-1.105,0.974-2.461,2.33l-0.428,0.164l1.346-2.428c-2.034,0.656-4.572,2.122-7.612,4.397l-0.229-0.525
			c0-0.481,0.021-0.907,0.065-1.279c0.919-0.7,2.538-1.663,4.856-2.888c2.449-1.312,4.135-2.056,5.053-2.231
			C251.702,6.508,252.325,6.759,252.719,7.087z M250.848,20.836c-0.24,0.744-0.514,1.564-0.82,2.46
			c-0.416,1.226-0.973,3.096-1.674,5.611l-0.36,0.164c-0.612-0.7-0.919-1.236-0.919-1.607c0-0.568,0.197-1.127,0.591-1.674
			c-0.175-0.416-0.372-0.623-0.591-0.623c-0.525,0-1.159,0.361-1.902,1.082c-0.635,0.656-1.072,1.27-1.312,1.838l-0.492,0.361
			l-0.46-1.115l0.099-1.182c0.459-0.613,1.148-1.543,2.066-2.789c0.547-0.723,1.357-1.837,2.429-3.347h-0.196
			c-0.811-0.021-1.554,0.098-2.232,0.361l-0.426-1.148c1.072-1.706,1.826-3.062,2.264-4.069c-0.459,0.066-0.787,0.099-0.984,0.099
			c-0.678,0-1.018-0.197-1.018-0.591c0.176-0.087,0.843-0.569,2.002-1.444c0.832-0.612,1.543-0.918,2.133-0.918
			c0.744,0,1.279,0.262,1.607,0.788c-1.137,0.897-1.946,1.619-2.428,2.166c-0.635,0.656-1.269,1.531-1.902,2.625
			c0.962-0.197,1.52-0.295,1.673-0.295c0.897,0,1.454,0.229,1.673,0.689c-1.203,1.422-2.307,3.336-3.313,5.743
			c0.394-0.088,0.788-0.131,1.181-0.131c0.351,0,0.701,0.043,1.051,0.131c0.416-0.875,1.17-2.078,2.264-3.61V20.836z M250.619,3.577
			c0.022,0.241-0.055,0.465-0.229,0.672c-0.176,0.208-0.826,0.618-1.953,1.23c-1.126,0.613-1.82,0.952-2.083,1.017l1.411-2.297
			l-0.984-0.918c0.416-0.503,0.863-0.755,1.346-0.755c0.896,0,1.728,0.317,2.493,0.952V3.577z M272.374,30.581
			c0,0.48-0.23,0.799-0.689,0.951c-1.05-0.043-2.198-0.93-3.445-2.658c-0.48-0.635-1.279-1.946-2.395-3.938
			c-0.088,0.066-0.832,0.799-2.232,2.199c-1.158,1.137-1.892,1.738-2.197,1.805c-0.46-0.438-0.689-1.039-0.689-1.805
			c0-0.941,0.59-2.691,1.771-5.25l0.066,0.328c-0.264,1.094-0.395,2.012-0.395,2.756c0,0.481,0.055,0.896,0.164,1.247
			c0.832-0.634,1.75-1.718,2.756-3.249c-0.59-0.875-1.094-1.99-1.509-3.347c-0.656,0.044-1.673,0.558-3.052,1.542
			c-1.225,0.854-2.133,1.608-2.723,2.264c0.109,1.116,0.164,2.308,0.164,3.577c0,1.027-0.428,2.187-1.28,3.478
			c-0.612-0.088-1.05-0.394-1.312-0.919s-0.503-1.039-0.722-1.542c-0.176-0.306-0.504-0.788-0.984-1.444
			c-0.723,0.569-1.477,1.466-2.264,2.691c-0.46,0-0.689-0.559-0.689-1.674c0.525-0.787,1.148-1.564,1.87-2.33
			c-0.481-0.766-0.875-1.541-1.181-2.329c0.109-0.875,0.766-1.805,1.969-2.789c0.939-0.788,1.936-1.411,2.985-1.871
			c-0.022-0.394-0.132-0.788-0.328-1.181c-0.962,0.394-1.87,0.635-2.724,0.722l-0.426-0.229c1.027-0.809,2.482-2.111,4.363-3.905
			l-0.262-0.328c-0.656,0.175-1.98,0.82-3.971,1.936c-0.24-0.131-0.372-0.382-0.395-0.755c0-0.284,0-0.579,0-0.886
			c0.525-0.525,1.007-0.788,1.444-0.788c0.132,0,0.241,0.033,0.328,0.099c2.144-1.006,3.86-1.783,5.151-2.33l-0.033-0.984
			c-0.896,0.328-1.586,0.492-2.066,0.492c-0.416,0-0.864-0.12-1.346-0.361l0.099-0.164c1.335-0.459,2.429-0.962,3.281-1.509
			l-0.36-1.05c-1.007,0.547-2.111,0.897-3.314,1.05L254.36,7.35l0.164-0.23c1.027-0.153,1.848-0.382,2.461-0.689
			c-0.679-0.722-1.084-1.422-1.215-2.1c0.066-0.372,0.099-0.733,0.099-1.083c0-0.328-0.032-0.645-0.099-0.952l0.197-0.033
			c1.05,0.241,1.75,0.689,2.1,1.345l1.312-0.689l-0.065,0.262c-0.372,0.394-0.743,0.799-1.116,1.214
			c-0.415,0.481-0.611,0.962-0.59,1.443v0.164c1.182-0.438,2.018-0.82,2.51-1.148s1.154-0.951,1.985-1.87
			c0.306-0.372,0.81-0.897,1.509-1.575V1.247c0-0.284-0.164-0.59-0.492-0.918L264.04,0c0.371,0.022,0.754,0.055,1.148,0.098
			c0.393,0.044,0.656,0.252,0.787,0.624c-0.044,0.328-0.58,0.842-1.607,1.542c-0.285,0.197-0.996,0.864-2.133,2.001
			c1.094-0.416,1.782-0.624,2.066-0.624c1.006,0,1.51,0.361,1.51,1.083c0,0.306-0.153,0.525-0.459,0.656
			c-0.022,0.021-0.34,0.055-0.952,0.098c-1.903,0.197-3.249,0.591-4.036,1.181c0.307,0.263,0.504,0.537,0.591,0.82
			c0.351-0.131,0.831-0.197,1.444-0.197c0.393,0,0.699,0.164,0.918,0.492l-0.065,0.394c-0.109,0.175-0.465,0.328-1.066,0.459
			c-0.602,0.131-0.979,0.317-1.132,0.558c-0.021,0.372-0.055,0.766-0.099,1.181c1.794-0.525,3.456-0.788,4.987-0.788
			c1.182,0,1.99,0.35,2.428,1.05c0,0.897-0.415,1.345-1.246,1.345c-0.307,0-0.76-0.033-1.361-0.099
			c-0.602-0.065-1.057-0.098-1.362-0.098c-0.503,0-0.952,0.033-1.345,0.098l0.393,0.492l-0.328,0.689
			c0.088,1.269,0.416,2.56,0.984,3.872c0.92-0.656,1.379-1.291,1.379-1.903c1.027,0,1.838,0.328,2.428,0.984
			c-0.043,0.503-0.492,0.996-1.346,1.477c-0.984,0.569-1.553,1.006-1.705,1.312c0.131,0.591,0.492,1.433,1.082,2.527
			c0.525-0.853,0.766-1.465,0.723-1.837l0.393-0.525c0.438-0.087,0.766-0.131,0.984-0.131c0.592,0,0.908,0.142,0.952,0.426
			c-0.153,0.394-0.53,0.99-1.132,1.789c-0.602,0.798-0.969,1.438-1.1,1.919c1.028,1.795,2.013,3.062,2.953,3.807
			c0.219-0.678,0.34-1.564,0.361-2.658c0.043-1.399,0.088-2.285,0.131-2.657c0.481,0.722,0.82,1.663,1.018,2.821
			c0.131,1.007,0.262,2.002,0.394,2.986c0.044,0.24,0.196,0.787,0.46,1.641C272.275,29.585,272.374,30.143,272.374,30.581z
			 M256.329,19.392c-0.811,0.11-1.652,0.503-2.527,1.181c-0.963,0.744-1.443,1.488-1.443,2.231c0,0.219,0.284,0.788,0.854,1.707
			c0.547-0.832,1.104-1.662,1.673-2.494C255.497,21.033,255.978,20.158,256.329,19.392z M256.295,25.496
			c0-0.328-0.021-0.689-0.066-1.083c-0.524,0.634-1.027,1.148-1.509,1.542c0.46,0.504,0.843,0.896,1.148,1.182
			C256.153,26.742,256.295,26.195,256.295,25.496z M262.923,17.62c-0.196-0.415-0.515-1.378-0.952-2.887
			c-0.35-1.203-0.766-2.122-1.246-2.756c-0.7,0.131-1.652,0.481-2.855,1.05c0.154,0.219,0.449,0.427,0.887,0.624
			s0.732,0.372,0.886,0.525c-0.132,0.328-0.345,0.563-0.64,0.706c-0.295,0.143-0.574,0.29-0.837,0.443
			c-0.351,0.241-0.843,0.624-1.477,1.148l0.558,0.459l0.164,0.689c0.307-0.087,0.58-0.131,0.82-0.131
			c0.438,0,0.723,0.143,0.854,0.427c-0.066,0.197-0.34,0.64-0.82,1.329c-0.481,0.689-0.723,1.078-0.723,1.165v0.656
			C259.27,19.972,261.064,18.823,262.923,17.62z M271.815,14.864c0,0.373-0.24,0.678-0.721,0.919
			c-1.816-0.109-3.129-0.798-3.938-2.067l0.295-0.229c0.525-0.109,1.05-0.164,1.574-0.164
			C270.885,13.322,271.815,13.836,271.815,14.864z"/>
	</g>
	<g>
		<g>
			<path fill="#482B24" d="M156.257,4.414l1.512-0.038c0.806,0,1.637,0.139,2.495,0.416c1.688,0.529,2.533,1.776,2.533,3.742
				c0,1.387-0.309,2.483-0.926,3.289c-0.618,0.807-1.336,1.506-2.155,2.098c-0.819,0.593-1.959,1.065-3.42,1.418
				c-1.462,0.353-2.886,0.567-4.271,0.643c1.033,2.293,2.344,4.422,3.931,6.388c0.958,1.16,1.991,1.739,3.1,1.739
				c1.688,0,3.578-1.374,5.67-4.121c0.202-0.277,0.302-0.264,0.302,0.038c0,0.203-0.075,0.403-0.227,0.605
				c-2.545,3.502-4.712,5.254-6.501,5.254l-1.285-0.264c-1.916-0.832-3.931-3.566-6.048-8.204c-0.429-0.932-0.656-1.423-0.68-1.474
				c0.479-0.655,0.818-0.982,1.021-0.982c0.202,0,0.636,0,1.304,0c0.667,0,1.266-0.013,1.795-0.039
				c0.529-0.024,1.185-0.113,1.966-0.264c0.781-0.151,1.373-0.391,1.777-0.718c1.083-0.807,1.901-2.028,2.457-3.667
				c0.227-0.629,0.34-1.229,0.34-1.796c0-0.566-0.101-1.115-0.302-1.644c-0.504-1.234-1.487-1.853-2.948-1.853
				c-1.386,0-2.319,0.297-2.797,0.889c-0.479,0.592-0.964,1.311-1.455,2.155c-0.492,0.844-0.901,1.575-1.229,2.192
				c-0.328,0.618-0.75,1.449-1.266,2.494c-0.517,1.047-0.838,1.695-0.964,1.947c-0.126,0.252-0.316,0.611-0.567,1.077
				c-0.252,0.467-0.504,0.926-0.756,1.379c-0.252,0.454-0.542,0.996-0.87,1.625c-0.328,0.63-0.617,1.223-0.869,1.777
				c-0.252,0.554-0.491,1.084-0.718,1.588c-0.504,1.133-0.668,1.865-0.492,2.191c0.101,0.227-0.05,0.266-0.453,0.113
				c-0.051,0-0.126-0.02-0.227-0.056c-0.101-0.038-0.183-0.063-0.246-0.077c-0.062-0.012-0.151-0.023-0.264-0.037
				c-0.114-0.012-0.208-0.019-0.283-0.019c-0.277,0-0.744,0.202-1.398,0.604c-0.933,0.58-1.557,0.869-1.872,0.869
				c-0.315,0-0.472-0.074-0.472-0.227c0-0.051,0.025-0.089,0.076-0.113c1.033-0.177,1.839-0.781,2.419-1.814
				c1.134-1.914,2.123-3.66,2.967-5.235c0.844-1.574,1.758-3.257,2.741-5.046c0.982-1.789,1.65-3.037,2.003-3.742
				c0.353-0.706,0.668-1.354,0.945-1.947c0.277-0.592,0.466-0.976,0.567-1.152c0.327-0.605,1.07-1.109,2.23-1.512
				c-0.378-0.024-1.034-0.038-1.966-0.038c-0.933,0-2.356,0.176-4.271,0.529c-2.622,0.479-3.931,1.525-3.931,3.137
				c0,0.605,0.202,1.034,0.605,1.285c0.126,0.051,0.119,0.121-0.019,0.208c-0.139,0.089-0.278,0.089-0.416,0
				c-0.139-0.087-0.373-0.371-0.7-0.851c-0.504-0.78-0.756-1.474-0.756-2.079c0-1.562,1.461-2.444,4.385-2.646
				c0.479-0.025,1.171-0.038,2.079-0.038l5.595-0.038C155.45,4.401,155.854,4.414,156.257,4.414z"/>
			<path fill="#482B24" d="M158.298,26.234l-0.07-0.007l-1.354-0.286c-2.016-0.875-4.052-3.615-6.228-8.378
				c-0.426-0.928-0.652-1.417-0.677-1.468l-0.091-0.189l0.124-0.169c0.584-0.8,0.962-1.126,1.303-1.126h1.304
				c0.661,0,1.254-0.013,1.778-0.038c0.506-0.023,1.151-0.11,1.917-0.258c0.72-0.14,1.266-0.357,1.623-0.646
				c1.032-0.768,1.817-1.945,2.346-3.507c0.214-0.594,0.321-1.158,0.321-1.684c0-0.522-0.094-1.033-0.279-1.519
				c-0.446-1.093-1.305-1.627-2.621-1.627c-1.269,0-2.118,0.255-2.525,0.759c-0.463,0.573-0.943,1.283-1.425,2.11
				c-0.487,0.836-0.898,1.57-1.222,2.181c-0.326,0.615-0.747,1.444-1.261,2.485c-0.517,1.048-0.839,1.697-0.965,1.949
				c-0.128,0.255-0.318,0.617-0.572,1.087c-0.253,0.468-0.506,0.929-0.758,1.383c-0.251,0.452-0.539,0.991-0.865,1.617
				c-0.323,0.622-0.612,1.214-0.86,1.76c-0.252,0.554-0.491,1.083-0.718,1.587c-0.653,1.468-0.534,1.825-0.503,1.882
				c0.117,0.262,0.064,0.424,0.002,0.52c-0.073,0.113-0.288,0.303-0.839,0.105c-0.077-0.01-0.164-0.033-0.272-0.072
				c-0.084-0.033-0.149-0.053-0.2-0.064c-0.049-0.01-0.127-0.02-0.228-0.03c-0.099-0.011-0.18-0.017-0.246-0.017
				c-0.095,0-0.403,0.054-1.215,0.552c-1.314,0.817-1.789,0.921-2.055,0.921c-0.742,0-0.822-0.402-0.822-0.576
				c0-0.186,0.102-0.346,0.273-0.428l0.094-0.031c0.932-0.158,1.643-0.695,2.173-1.641c1.121-1.891,2.117-3.648,2.964-5.229
				c0.844-1.575,1.759-3.259,2.742-5.049c0.977-1.779,1.649-3.034,1.997-3.73c0.351-0.703,0.665-1.349,0.941-1.938
				c0.285-0.608,0.474-0.994,0.58-1.179c0.207-0.382,0.546-0.722,1.025-1.024c-0.145,0-0.297-0.001-0.457-0.001
				c-0.907,0-2.323,0.176-4.208,0.523c-2.453,0.448-3.645,1.361-3.645,2.792c0,0.48,0.144,0.804,0.44,0.988
				c0.193,0.073,0.244,0.25,0.253,0.347c0.011,0.122-0.027,0.3-0.27,0.454c-0.25,0.16-0.54,0.162-0.792-0.001
				c-0.124-0.078-0.329-0.258-0.799-0.948c-0.543-0.841-0.817-1.604-0.817-2.276c0-1.771,1.585-2.779,4.71-2.996
				c0.497-0.025,1.203-0.038,2.103-0.038l5.592-0.038c0.42,0.025,0.816,0.038,1.212,0.038l1.503-0.038h0
				c0.847,0,1.722,0.146,2.61,0.433c1.84,0.577,2.775,1.948,2.775,4.075c0,1.458-0.336,2.637-0.999,3.502
				c-0.636,0.831-1.386,1.56-2.228,2.168c-0.852,0.616-2.044,1.112-3.543,1.474c-1.295,0.313-2.579,0.521-3.822,0.618
				c0.983,2.083,2.217,4.051,3.672,5.852c0.881,1.068,1.833,1.609,2.828,1.609c1.565,0,3.379-1.34,5.392-3.982
				c0.119-0.164,0.275-0.336,0.499-0.336c0.101,0,0.432,0.042,0.432,0.586c0,0.278-0.1,0.553-0.296,0.815
				C162.442,24.468,160.223,26.234,158.298,26.234z M157.12,25.285l1.213,0.249c1.169-0.017,2.55-0.878,4.122-2.568
				c-2.534,2.124-4.836,1.968-6.77-0.374c-1.602-1.983-2.94-4.158-3.98-6.466l-0.209-0.466l0.509-0.027
				c1.125-0.062,2.288-0.218,3.467-0.466c-0.393,0.056-0.745,0.092-1.051,0.106c-0.534,0.026-1.138,0.039-1.812,0.039h-1.304
				c0.01,0.003-0.159,0.074-0.615,0.674c0.106,0.229,0.304,0.658,0.593,1.287C153.341,21.779,155.304,24.475,157.12,25.285z
				 M155.923,4.761l-1.366,0.475c-1.069,0.372-1.755,0.826-2.037,1.348c-0.099,0.172-0.285,0.552-0.558,1.134
				c-0.279,0.595-0.596,1.247-0.95,1.955c-0.352,0.704-1.028,1.967-2.009,3.754c-0.983,1.789-1.896,3.47-2.739,5.043
				c-0.853,1.589-1.854,3.355-2.975,5.248c-0.15,0.268-0.315,0.51-0.496,0.725c0.655-0.39,1.115-0.572,1.442-0.572
				c0.085,0,0.192,0.008,0.321,0.021c0.126,0.014,0.224,0.028,0.294,0.042c0.083,0.019,0.181,0.046,0.303,0.093
				c0.081,0.029,0.112,0.033,0.113,0.033h0.025c-0.03-0.459,0.16-1.133,0.589-2.097c0.228-0.507,0.467-1.037,0.72-1.591
				c0.253-0.557,0.548-1.16,0.877-1.793s0.621-1.178,0.874-1.634c0.251-0.452,0.502-0.91,0.754-1.376
				c0.25-0.462,0.438-0.817,0.563-1.068c0.125-0.251,0.446-0.899,0.962-1.945c0.518-1.049,0.942-1.883,1.271-2.503
				c0.328-0.619,0.744-1.36,1.235-2.205c0.5-0.858,1-1.598,1.486-2.199c0.353-0.436,0.887-0.729,1.619-0.885
				C156.135,4.764,156.029,4.763,155.923,4.761z M159.125,4.859c0.849,0.307,1.465,0.923,1.841,1.841
				c0.219,0.574,0.328,1.169,0.328,1.776c0,0.607-0.122,1.251-0.361,1.915c-0.573,1.692-1.44,2.982-2.577,3.829
				c-0.075,0.062-0.157,0.12-0.245,0.175c0.545-0.226,1.013-0.479,1.398-0.759c0.787-0.568,1.487-1.25,2.082-2.027
				c0.567-0.74,0.854-1.775,0.854-3.076c0-1.811-0.748-2.925-2.287-3.408C159.81,5.013,159.465,4.924,159.125,4.859z M149.879,4.761
				l-0.424,0.003c-0.891,0-1.584,0.013-2.063,0.038c-2.688,0.186-4.053,0.958-4.053,2.296c0,0.495,0.202,1.076,0.6,1.73
				c-0.01-0.094-0.015-0.192-0.015-0.294c0-1.799,1.419-2.97,4.219-3.481C148.771,4.937,149.352,4.839,149.879,4.761z"/>
		</g>
		<g>
			<path fill="#482B24" d="M177.953,15.036c-0.755,0.227-1.619,1.393-2.589,3.497c-0.971,2.104-1.455,3.541-1.455,4.309
				c0,0.77,0.188,1.152,0.566,1.152c0.454,0,1.197-0.402,2.231-1.209c1.108-0.856,2.103-1.865,2.986-3.024
				c0.202-0.227,0.315-0.353,0.34-0.378c0.075,0.151,0.101,0.309,0.075,0.473c-0.025,0.165-0.188,0.422-0.492,0.775
				c-2.217,2.973-4.296,4.461-6.236,4.461c-0.882,0-1.323-0.341-1.323-1.021c0-0.454,0.164-1.152,0.491-2.098
				c0.328-0.945,0.63-1.683,0.907-2.211c-2.47,3.553-4.75,5.331-6.841,5.331c-0.605,0-0.907-0.24-0.907-0.72
				c0-0.604,0.491-1.89,1.474-3.855c0.227-0.453,0.529-1.07,0.907-1.852c0.378-0.781,0.637-1.298,0.775-1.55
				c0.138-0.251,0.208-0.434,0.208-0.547c0-0.114-0.038-0.17-0.114-0.17c-0.176,0-0.668,0.366-1.475,1.096
				c-0.807,0.731-1.738,1.815-2.796,3.251c-0.177,0.252-0.265,0.227-0.265-0.076c0-0.201,0.063-0.378,0.189-0.529
				c1.033-1.386,1.871-2.438,2.513-3.156s0.996-1.115,1.059-1.191c0.062-0.076,0.202-0.208,0.416-0.397
				c0.213-0.189,0.384-0.321,0.51-0.396c0.503-0.303,1.04-0.454,1.606-0.454c0.567,0,0.85,0.215,0.85,0.643
				c0,0.328-0.214,0.808-0.643,1.437s-1.077,1.795-1.946,3.496c-0.869,1.701-1.304,2.772-1.304,3.213
				c0,0.442,0.176,0.661,0.529,0.661c0.479,0,1.234-0.492,2.268-1.473c1.587-1.513,3.225-3.881,4.914-7.107
				c0.227-0.403,0.378-0.605,0.454-0.605h0.529c0.806,0,1.437-0.113,1.89-0.34c0.025-0.025,0.062-0.038,0.114-0.038
				c0.05,0,0.075,0.051,0.075,0.152C178.445,14.784,178.281,14.935,177.953,15.036z"/>
			<path fill="#482B24" d="M173.38,25.441c-1.456,0-1.673-0.859-1.673-1.371c0-0.467,0.147-1.135,0.451-2.037
				c-1.953,2.289-3.779,3.408-5.543,3.408c-1.135,0-1.257-0.748-1.257-1.069c0-0.667,0.495-1.979,1.511-4.012
				c0.227-0.452,0.528-1.068,0.905-1.848c0.317-0.655,0.551-1.127,0.702-1.414c-0.183,0.148-0.43,0.357-0.757,0.654
				c-0.784,0.711-1.709,1.788-2.75,3.199c-0.062,0.089-0.221,0.314-0.468,0.314c-0.143,0-0.321-0.081-0.393-0.306
				c-0.024-0.078-0.036-0.17-0.036-0.292c0-0.285,0.091-0.539,0.271-0.753c1.021-1.371,1.873-2.44,2.521-3.165
				c0.637-0.712,0.987-1.105,1.05-1.181c0.076-0.092,0.216-0.226,0.454-0.437c0.232-0.206,0.417-0.348,0.563-0.435
				c0.555-0.333,1.156-0.503,1.785-0.503c1.083,0,1.2,0.694,1.2,0.993c0,0.404-0.23,0.939-0.704,1.634
				c-0.417,0.614-1.065,1.777-1.923,3.458c-1.102,2.154-1.266,2.838-1.266,3.054c0,0.312,0.083,0.312,0.179,0.312
				c0.215,0,0.765-0.179,2.027-1.377c1.552-1.479,3.182-3.839,4.844-7.016c0.348-0.617,0.518-0.792,0.764-0.792h0.529
				c0.728,0,1.3-0.097,1.702-0.287c0.068-0.048,0.166-0.091,0.302-0.091c0.158,0,0.425,0.105,0.425,0.502
				c0,0.256-0.128,0.6-0.739,0.788c-0.451,0.135-1.226,0.819-2.374,3.308c-1.176,2.55-1.423,3.671-1.423,4.163
				c0,0.48,0.087,0.803,0.216,0.803c0.209,0,0.749-0.147,2.016-1.136c1.079-0.833,2.062-1.829,2.923-2.959
				c0.226-0.257,0.345-0.388,0.371-0.414l0.344-0.344l0.217,0.436c0.108,0.217,0.145,0.446,0.108,0.682
				c-0.037,0.238-0.213,0.531-0.572,0.949C177.62,23.892,175.427,25.441,173.38,25.441z M173.292,19.636l0.473,0.287
				c-0.267,0.509-0.565,1.237-0.886,2.164c-0.313,0.904-0.472,1.571-0.472,1.983c0,0.234,0,0.671,0.973,0.671
				c1.235,0,2.557-0.673,3.95-2.007c-0.135,0.111-0.271,0.221-0.41,0.327c-1.121,0.875-1.898,1.283-2.445,1.283
				c-0.418,0-0.917-0.261-0.917-1.503c0-0.829,0.487-2.286,1.487-4.456c0.746-1.619,1.436-2.698,2.091-3.264
				c-0.238,0.025-0.495,0.038-0.771,0.038h-0.411c-0.045,0.059-0.129,0.181-0.267,0.427
				C174.884,17.122,174.083,18.475,173.292,19.636z M168.957,16.046c0.223,0,0.463,0.163,0.463,0.521
				c0,0.179-0.077,0.399-0.25,0.716c-0.138,0.25-0.393,0.761-0.767,1.535c-0.379,0.783-0.682,1.401-0.909,1.856
				c-1.188,2.374-1.437,3.322-1.437,3.698c0,0.155,0,0.369,0.557,0.369c0.543,0,1.106-0.134,1.686-0.401
				c-0.033,0.004-0.066,0.005-0.098,0.005c-0.206,0-0.879-0.073-0.879-1.012c0-0.319,0.139-1.018,1.343-3.373
				c0.884-1.73,1.528-2.886,1.969-3.533c0.506-0.744,0.582-1.096,0.582-1.24c0-0.124,0-0.292-0.5-0.292
				c-0.5,0-0.98,0.136-1.426,0.404c-0.074,0.044-0.213,0.142-0.458,0.359c-0.194,0.171-0.322,0.29-0.379,0.358
				c-0.047,0.058-0.261,0.299-0.64,0.723C168.559,16.108,168.785,16.046,168.957,16.046z"/>
		</g>
		<g>
			<path fill="#482B24" d="M197.382,4.187c0,0.101-0.057,0.151-0.171,0.151c-0.112,0-0.169-0.024-0.169-0.075
				c0-0.681-0.505-1.021-1.513-1.021s-1.946,0.183-2.816,0.548c-0.869,0.365-1.662,0.901-2.381,1.606
				c-0.718,0.706-1.36,1.436-1.928,2.192c-0.566,0.756-1.128,1.682-1.682,2.778c-0.555,1.097-1.008,2.035-1.361,2.816
				s-0.762,1.733-1.229,2.854c-0.467,1.122-0.812,1.935-1.039,2.438c-0.025,0.101-0.014,0.151,0.038,0.151
				c2.62-2.62,4.548-3.931,5.783-3.931c0.428,0,0.643,0.303,0.643,0.908v0.34c-0.302,2.092-1.317,4.177-3.043,6.256
				c-1.727,2.078-3.585,3.119-5.576,3.119c-1.234,0-1.852-0.34-1.852-1.021c0-0.479,0.667-2.242,2.003-5.292
				c-0.227,0.252-0.523,0.581-0.888,0.983c-0.366,0.403-0.605,0.687-0.718,0.851c-0.113,0.164-0.183,0.126-0.208-0.113
				c-0.025-0.239,0.063-0.479,0.265-0.718c0.201-0.239,0.591-0.7,1.172-1.38c0.578-0.68,1.008-1.184,1.285-1.512
				c2.469-5.19,5.127-9.185,7.975-11.982c2.243-2.193,4.196-3.289,5.859-3.289c0.402,0,0.756,0.107,1.059,0.321
				c0.303,0.214,0.466,0.523,0.491,0.926V4.187z M187.706,16.472c0-0.327-0.113-0.491-0.34-0.491c-0.378,0-0.996,0.403-1.853,1.209
				c-0.856,0.807-1.55,1.525-2.079,2.154c-1.814,2.067-2.721,3.591-2.721,4.575c0,0.504,0.314,0.756,0.944,0.756
				s1.386-0.441,2.269-1.324c0.654-0.604,1.448-1.712,2.381-3.326C187.239,18.413,187.706,17.228,187.706,16.472z"/>
			<path fill="#482B24" d="M180.939,25.667c-1.819,0-2.202-0.746-2.202-1.371c0-0.278,0.141-0.951,1.186-3.455
				c-0.075,0.091-0.121,0.153-0.15,0.195c-0.043,0.062-0.174,0.251-0.405,0.251c-0.144,0-0.391-0.068-0.439-0.527
				c-0.036-0.336,0.081-0.667,0.346-0.98c0.2-0.239,0.591-0.7,1.172-1.381l1.256-1.477c2.471-5.184,5.17-9.234,8.026-12.04
				c2.333-2.28,4.329-3.389,6.104-3.389c0.475,0,0.898,0.13,1.261,0.385c0.392,0.277,0.606,0.677,0.638,1.19l0.002,1.118
				c0,0.295-0.215,0.501-0.521,0.501c-0.504,0-0.52-0.382-0.52-0.425c0-0.201,0-0.67-1.162-0.67c-0.955,0-1.856,0.175-2.68,0.521
				c-0.824,0.346-1.588,0.861-2.271,1.533c-0.702,0.689-1.34,1.413-1.894,2.153c-0.554,0.738-1.108,1.655-1.649,2.726
				c-0.547,1.08-1.003,2.023-1.354,2.802c-0.345,0.761-0.745,1.691-1.224,2.844c-0.18,0.432-0.342,0.818-0.486,1.159
				c2.162-2.006,3.787-2.985,4.944-2.985c0.298,0,0.992,0.123,0.992,1.258v0.34c-0.313,2.194-1.362,4.358-3.123,6.48
				C184.996,24.576,183.029,25.667,180.939,25.667z M182.135,17.493l-0.724,1.652c-1.718,3.919-1.974,4.91-1.974,5.151
				c0,0.166,0,0.672,1.501,0.672c0.069,0,0.138-0.002,0.206-0.004c-0.695-0.189-0.782-0.77-0.782-1.045
				c0-1.081,0.919-2.653,2.808-4.806c0.062-0.072,0.125-0.146,0.189-0.221l-0.083,0.083h-0.315l-0.143-0.151
				c-0.132-0.168-0.081-0.369-0.064-0.435c0.246-0.561,0.591-1.371,1.056-2.488c0.483-1.159,0.886-2.096,1.233-2.863
				c0.355-0.789,0.815-1.741,1.367-2.83c0.14-0.275,0.279-0.541,0.42-0.797c-1.571,2.211-3.082,4.836-4.517,7.853l-0.049,0.076
				L182.135,17.493z M187.366,15.631c0.334,0,0.689,0.221,0.689,0.841c0,0.827-0.473,2.046-1.445,3.729
				c-0.959,1.66-1.76,2.775-2.447,3.409c-0.371,0.371-0.723,0.668-1.057,0.893c1.09-0.478,2.14-1.322,3.141-2.526
				c1.676-2.021,2.674-4.068,2.965-6.083l-0.004-0.29c0-0.558-0.183-0.558-0.292-0.558c-0.355,0-0.882,0.139-1.649,0.591
				C187.302,15.632,187.334,15.631,187.366,15.631z M187.342,16.333c-0.133,0.013-0.561,0.145-1.59,1.113
				c-0.842,0.793-1.532,1.509-2.051,2.125c-2.182,2.486-2.639,3.736-2.639,4.349c0,0.172,0,0.406,0.595,0.406
				c0.522,0,1.222-0.423,2.021-1.221c0.636-0.588,1.415-1.68,2.326-3.255c0.896-1.551,1.352-2.687,1.352-3.378
				C187.356,16.402,187.348,16.358,187.342,16.333z M195.833,2.193c-1.021,0-2.182,0.459-3.469,1.369
				c0.07-0.033,0.143-0.064,0.215-0.094c0.91-0.382,1.902-0.576,2.951-0.576c0.774,0,1.234,0.196,1.502,0.456V3.091
				c-0.018-0.277-0.127-0.488-0.343-0.641C196.444,2.278,196.165,2.193,195.833,2.193z"/>
		</g>
		<g>
			<path fill="#482B24" d="M196.588,15.187c0,0.328-0.215,0.808-0.643,1.437c-0.43,0.629-1.078,1.795-1.947,3.496
				c-0.869,1.701-1.304,2.772-1.304,3.213c0,0.442,0.176,0.661,0.529,0.661c0.479,0,1.298-0.553,2.456-1.663
				c1.159-1.108,2.225-2.488,3.195-4.139c0.97-1.65,1.556-2.526,1.758-2.627c1.083-0.554,1.751-0.856,2.003-0.907
				s0.497-0.075,0.737-0.075c0.239,0,0.359,0.088,0.359,0.264c0,0.177-0.114,0.265-0.34,0.265c-0.529,0-0.959,0.24-1.285,0.718
				c-0.605,0.857-2.307,4.625-5.104,11.303c-0.706,1.662-1.398,3.092-2.08,4.291c-0.68,1.195-1.587,2.387-2.721,3.57
				c-2.041,2.143-4.234,3.215-6.577,3.215c-1.007,0-1.953-0.229-2.835-0.682c-1.537-0.807-2.307-2.18-2.307-4.121v-0.643
				c0-0.377,0.152-0.566,0.454-0.566c0.051,0,0.075,0.025,0.075,0.076l-0.075,0.945c0,1.133,0.358,2.01,1.077,2.627
				s1.588,0.926,2.608,0.926s2.01-0.189,2.968-0.568c2.141-0.932,3.963-2.412,5.461-4.439c1.5-2.029,2.879-4.505,4.14-7.427
				c0.604-1.488,1.247-3.238,1.928-5.255c-1.185,1.612-2.269,2.897-3.251,3.855c-1.486,1.436-2.898,2.155-4.232,2.155
				c-0.605,0-0.908-0.24-0.908-0.72c0-0.604,0.491-1.89,1.475-3.855c0.227-0.453,0.529-1.07,0.906-1.852
				c0.379-0.781,0.637-1.298,0.775-1.55c0.139-0.251,0.209-0.434,0.209-0.547c0-0.114-0.038-0.17-0.114-0.17
				c-0.177,0-0.668,0.366-1.475,1.096c-0.807,0.731-1.738,1.815-2.796,3.251c-0.152,0.227-0.24,0.221-0.266-0.019
				c-0.025-0.239,0.038-0.435,0.189-0.586c1.033-1.386,1.871-2.438,2.514-3.156s0.995-1.115,1.059-1.191
				c0.062-0.076,0.201-0.208,0.416-0.397c0.213-0.189,0.383-0.321,0.51-0.396c0.504-0.303,1.039-0.454,1.606-0.454
				S196.588,14.759,196.588,15.187z"/>
			<path fill="#482B24" d="M185.626,38.558c-1.06,0-2.067-0.242-2.995-0.721c-1.657-0.869-2.496-2.359-2.496-4.432v-0.643
				c0-0.85,0.615-0.916,0.804-0.916c0.243,0,0.425,0.184,0.425,0.426l-0.076,0.973c0.002,1.008,0.314,1.781,0.957,2.334
				c0.658,0.566,1.438,0.842,2.38,0.842c0.973,0,1.928-0.184,2.839-0.543c2.064-0.898,3.854-2.355,5.309-4.324
				c1.477-1.996,2.855-4.472,4.1-7.358c0.387-0.95,0.793-2.022,1.213-3.198c-0.695,0.856-1.354,1.588-1.97,2.189
				c-1.55,1.496-3.057,2.254-4.478,2.254c-1.135,0-1.258-0.748-1.258-1.069c0-0.667,0.494-1.979,1.511-4.012
				c0.227-0.452,0.528-1.068,0.905-1.848c0.317-0.655,0.551-1.127,0.702-1.414c-0.183,0.148-0.431,0.357-0.757,0.654
				c-0.785,0.711-1.711,1.788-2.75,3.199c-0.055,0.083-0.205,0.308-0.458,0.308c-0.091,0-0.388-0.036-0.437-0.499
				c-0.037-0.343,0.062-0.644,0.289-0.87c1-1.348,1.854-2.418,2.5-3.142c0.639-0.712,0.988-1.105,1.051-1.181
				c0.075-0.092,0.215-0.226,0.453-0.437c0.233-0.206,0.418-0.348,0.562-0.435c0.556-0.333,1.156-0.503,1.786-0.503
				c1.083,0,1.2,0.694,1.2,0.993c0,0.404-0.23,0.939-0.703,1.634c-0.418,0.614-1.065,1.777-1.924,3.458
				c-1.102,2.154-1.266,2.838-1.266,3.054c0,0.312,0.082,0.312,0.179,0.312c0.175,0,0.738-0.152,2.215-1.566
				c1.13-1.08,2.185-2.447,3.135-4.063c1.507-2.564,1.755-2.688,1.901-2.762c1.479-0.756,1.896-0.898,2.092-0.938
				c0.275-0.055,0.546-0.082,0.807-0.082c0.523,0,0.709,0.331,0.709,0.614c0,0.284-0.181,0.615-0.689,0.615
				c-0.41,0-0.736,0.185-0.996,0.565c-0.592,0.836-2.295,4.617-5.07,11.24c-0.711,1.674-1.416,3.128-2.098,4.328
				c-0.691,1.217-1.625,2.441-2.772,3.641C190.356,37.44,188.058,38.558,185.626,38.558z M181.286,35.571
				c0.35,0.699,0.903,1.244,1.668,1.646c0.826,0.424,1.727,0.639,2.673,0.639c2.233,0,4.36-1.045,6.323-3.105
				c1.109-1.156,2.008-2.336,2.671-3.502c0.669-1.175,1.362-2.607,2.062-4.253c2.833-6.763,4.514-10.482,5.14-11.368
				c0.118-0.173,0.251-0.321,0.397-0.443c-0.291,0.127-0.738,0.34-1.428,0.692c-0.05,0.041-0.367,0.37-1.615,2.493
				c-0.045,0.077-0.09,0.153-0.136,0.229l1.132-1.541l-0.721,2.134c-0.676,2.008-1.328,3.782-1.935,5.274
				c-1.269,2.941-2.675,5.465-4.182,7.503c-1.53,2.068-3.415,3.602-5.604,4.555c-1.004,0.396-2.045,0.596-3.106,0.596
				c-1.102,0-2.056-0.34-2.837-1.01C181.598,35.948,181.431,35.769,181.286,35.571z M193.98,16.046c0.224,0,0.464,0.163,0.464,0.521
				c0,0.179-0.078,0.4-0.251,0.716c-0.138,0.25-0.394,0.761-0.767,1.535c-0.379,0.783-0.682,1.401-0.91,1.856
				c-1.188,2.374-1.437,3.322-1.437,3.698c0,0.155,0,0.369,0.558,0.369c0.543,0,1.108-0.135,1.691-0.401
				c-0.037,0.004-0.072,0.005-0.104,0.005c-0.206,0-0.88-0.073-0.88-1.012c0-0.319,0.141-1.018,1.344-3.373
				c0.883-1.73,1.527-2.886,1.969-3.533c0.506-0.744,0.581-1.096,0.581-1.24c0-0.124,0-0.292-0.5-0.292
				c-0.501,0-0.98,0.136-1.427,0.404c-0.074,0.044-0.213,0.142-0.458,0.359c-0.194,0.171-0.322,0.29-0.379,0.358
				c-0.048,0.058-0.261,0.299-0.64,0.723C193.582,16.108,193.807,16.046,193.98,16.046z"/>
		</g>
	</g>
	<g>
		<g>
			<path fill="#482B24" d="M281.31,25.279c-2.243,0-3.364-1.41-3.364-4.233c0-1.94,0.58-4.07,1.739-6.388
				c0.729-1.437,1.524-2.545,2.381-3.327c0.731-0.655,1.524-1.329,2.382-2.022c0.856-0.693,1.902-1.04,3.137-1.04
				c2.117,0,3.176,1.487,3.176,4.46c0,1.335-0.266,2.772-0.794,4.309c-0.781,2.218-1.814,3.918-3.1,5.103
				c-0.252,0.227-0.661,0.555-1.229,0.983c-0.567,0.43-1.002,0.795-1.304,1.097C283.602,24.927,282.595,25.279,281.31,25.279z
				 M288.909,13.619c0-1.929-0.631-3.157-1.891-3.686c-0.403-0.151-0.876-0.227-1.418-0.227s-1.128,0.277-1.758,0.832
				c-1.008,0.831-1.833,2.003-2.476,3.515s-1.052,2.735-1.229,3.667c-0.177,0.933-0.265,1.688-0.265,2.268
				c0,1.915,0.566,3.151,1.701,3.706c0.428,0.227,0.906,0.34,1.437,0.34c0.529,0,1.096-0.227,1.7-0.682
				c1.033-0.756,1.953-2.053,2.76-3.893C288.428,17.492,288.909,15.546,288.909,13.619z"/>
			<path fill="#482B24" d="M281.31,25.629c-1.694,0-3.714-0.795-3.714-4.583c0-1.986,0.598-4.188,1.775-6.545
				c0.746-1.468,1.573-2.621,2.459-3.429c0.736-0.66,1.541-1.343,2.396-2.035c0.917-0.742,2.047-1.118,3.357-1.118
				c1.608,0,3.525,0.834,3.525,4.811c0,1.369-0.273,2.857-0.812,4.423c-0.798,2.265-1.872,4.028-3.193,5.247
				c-0.265,0.237-0.686,0.574-1.254,1.004c-0.555,0.419-0.98,0.777-1.269,1.064C283.782,25.241,282.682,25.629,281.31,25.629z
				 M282.504,11.409c-0.068,0.061-0.137,0.123-0.205,0.183c-0.82,0.749-1.596,1.834-2.303,3.224
				c-1.128,2.257-1.701,4.354-1.701,6.23c0,2.614,0.986,3.883,3.015,3.883c0.981,0,1.791-0.221,2.415-0.658
				c-0.242,0.074-0.481,0.111-0.714,0.111c-0.585,0-1.123-0.129-1.601-0.381c-1.248-0.609-1.887-1.961-1.887-4.014
				c0-0.599,0.091-1.384,0.271-2.333c0.181-0.953,0.601-2.211,1.25-3.738C281.455,12.951,281.944,12.112,282.504,11.409z
				 M285.6,10.056c-0.451,0-0.965,0.25-1.526,0.745c-0.968,0.798-1.767,1.936-2.386,3.389c-0.629,1.481-1.035,2.691-1.206,3.595
				c-0.171,0.907-0.259,1.648-0.259,2.203c0,1.788,0.492,2.896,1.505,3.391c0.755,0.398,1.669,0.521,2.774-0.307
				c0.98-0.717,1.87-1.98,2.648-3.754c0.936-1.922,1.407-3.835,1.407-5.699c0-1.79-0.548-2.89-1.676-3.363
				C286.533,10.125,286.097,10.056,285.6,10.056z M285.6,9.355c0.581,0,1.1,0.084,1.541,0.249c1.408,0.592,2.117,1.94,2.117,4.014
				c0,1.971-0.495,3.987-1.473,5.993c-0.416,0.951-0.871,1.77-1.357,2.448c0.077-0.065,0.146-0.125,0.205-0.178
				c1.232-1.136,2.244-2.806,3.003-4.958c0.513-1.491,0.773-2.902,0.773-4.193c0-2.766-0.924-4.111-2.825-4.111
				c-1.131,0-2.101,0.314-2.883,0.936C285.008,9.422,285.309,9.355,285.6,9.355z"/>
		</g>
		<g>
			<path fill="#482B24" d="M297.451,8.534l0.718,0.076c3.428-0.051,5.797-0.076,7.107-0.076c0.1,0,0.15,0.089,0.15,0.265
				c0,0.177-0.145,0.517-0.435,1.021c-0.29,0.505-0.542,1.021-0.757,1.55c-0.213,0.53-0.434,1.008-0.66,1.437l-0.529-0.113
				l0.869-1.702c0.125-0.201,0.189-0.377,0.189-0.529c0-0.378-0.416-0.566-1.248-0.566c-2.369,0-3.806,0.025-4.309,0.075
				c-0.506,0.051-0.845,0.227-1.021,0.53c-0.906,1.764-1.738,3.478-2.494,5.141c0.907-0.479,2.053-0.719,3.439-0.719
				c2.797,0,4.196,0.971,4.196,2.911c0,0.554-0.114,1.197-0.341,1.928c-0.529,1.663-1.398,2.973-2.607,3.932
				c-1.438,1.082-3.289,1.625-5.557,1.625c-1.361,0-2.395-0.189-3.1-0.567c-0.252-0.151-0.379-0.29-0.379-0.415
				c0-0.127,0.076-0.342,0.228-0.643c0.151-0.303,0.428-1.223,0.831-2.761l0.832-0.34c-0.051,0.075-0.158,0.396-0.321,0.964
				c-0.165,0.566-0.246,1.039-0.246,1.417s0.189,0.743,0.567,1.097s1.021,0.529,1.928,0.529c1.461,0,2.696-0.455,3.705-1.361
				c1.007-0.907,1.7-1.965,2.078-3.174c0.201-0.656,0.303-1.267,0.303-1.833c0-0.567-0.164-1.04-0.492-1.418
				c-0.504-0.605-1.336-0.907-2.494-0.907c-1.16,0-2.293,0.188-3.402,0.566c-0.252,0.076-0.385,0.095-0.396,0.057
				c-0.014-0.038,0.145-0.359,0.473-0.964c0.529-1.108,1.448-3.326,2.759-6.652C297.135,8.66,297.274,8.534,297.451,8.534z"/>
			<path fill="#482B24" d="M294.163,25.667c-1.412,0-2.511-0.205-3.266-0.609c-0.25-0.148-0.562-0.377-0.562-0.723
				c0-0.189,0.082-0.438,0.264-0.801c0.096-0.19,0.313-0.812,0.807-2.691l0.044-0.169l2.07-0.845l-0.655,0.96
				c-0.008,0.016-0.072,0.162-0.273,0.864c-0.154,0.53-0.232,0.973-0.232,1.319c0,0.278,0.148,0.554,0.455,0.841
				c0.309,0.289,0.877,0.435,1.689,0.435c1.365,0,2.533-0.427,3.471-1.271c0.955-0.861,1.621-1.877,1.979-3.019
				c0.189-0.617,0.286-1.199,0.286-1.729c0-0.484-0.132-0.874-0.405-1.189c-0.438-0.523-1.186-0.786-2.23-0.786
				c-1.116,0-2.223,0.185-3.289,0.548c-0.225,0.068-0.356,0.095-0.457,0.095H293.6l-0.13-0.262
				c-0.054-0.152-0.067-0.195,0.497-1.237c0.513-1.074,1.438-3.305,2.742-6.614c0.208-0.522,0.555-0.6,0.741-0.6l0.755,0.078
				c3.37-0.052,5.764-0.078,7.07-0.078c0.23,0,0.5,0.161,0.5,0.614c0,0.177-0.057,0.458-0.48,1.195
				c-0.281,0.491-0.529,0.998-0.735,1.506c-0.216,0.533-0.442,1.027-0.676,1.469l-0.124,0.234l-1.234-0.265l1.076-2.107
				c0.134-0.216,0.151-0.323,0.151-0.37c0-0.107-0.308-0.216-0.897-0.216c-2.344,0-3.782,0.024-4.275,0.073
				c-0.389,0.04-0.635,0.157-0.752,0.357c-0.744,1.446-1.45,2.889-2.103,4.292c0.79-0.263,1.71-0.396,2.745-0.396
				c3.758,0,4.547,1.773,4.547,3.261c0,0.586-0.12,1.27-0.357,2.031c-0.548,1.725-1.465,3.104-2.725,4.102
				C298.436,25.097,296.497,25.667,294.163,25.667z M291.038,24.315c0.015,0,0.069,0.054,0.205,0.136
				c0.637,0.34,1.624,0.518,2.92,0.518c2.178,0,3.977-0.523,5.346-1.556c1.142-0.905,1.98-2.171,2.484-3.758
				c0.215-0.692,0.324-1.306,0.324-1.822c0-1.723-1.258-2.561-3.846-2.561c-1.079,0-2.012,0.152-2.783,0.453
				c0.631-0.113,1.271-0.17,1.914-0.17c1.263,0,2.192,0.348,2.764,1.033c0.378,0.437,0.572,0.991,0.572,1.642
				c0,0.6-0.107,1.251-0.318,1.936c-0.395,1.265-1.127,2.386-2.178,3.332c-1.07,0.963-2.396,1.451-3.939,1.451
				c-1.01,0-1.719-0.203-2.167-0.623c-0.45-0.42-0.679-0.875-0.679-1.353c0-0.169,0.016-0.353,0.045-0.552
				c-0.274,0.963-0.402,1.277-0.477,1.428C291.081,24.136,291.045,24.269,291.038,24.315L291.038,24.315z M297.424,8.883
				c0.022,0.006-0.018,0.041-0.064,0.159c-1.328,3.37-2.234,5.554-2.769,6.673c-0.065,0.122-0.122,0.226-0.169,0.316
				c0.018-0.005,0.035-0.011,0.055-0.016l0.236-0.52c0.758-1.667,1.599-3.401,2.502-5.156c0.243-0.419,0.676-0.655,1.296-0.718
				c0.523-0.051,1.944-0.077,4.345-0.077c0.873,0,1.391,0.209,1.547,0.623c0.092-0.176,0.186-0.351,0.285-0.523
				c0.247-0.429,0.337-0.653,0.37-0.76c-1.343,0.002-3.657,0.028-6.884,0.076L297.424,8.883z"/>
		</g>
	</g>
	<g>
		<path fill="#482B24" d="M82.281,6.677c-0.722,0.962-1.39,1.444-2.002,1.444c-0.7,0-1.334,0.301-1.903,0.902
			c-0.569,0.602-0.853,1.241-0.853,1.919c0,0.241,0.186,0.782,0.558,1.625c0.372,0.842,0.558,1.525,0.558,2.051
			c0,0.722-0.137,1.788-0.41,3.199c-0.273,1.411-0.41,2.477-0.41,3.199c0,0.372,0.021,0.766,0.066,1.181
			c0.809-1.291,1.936-3.259,3.379-5.906l0.066,0.328c-1.138,3.084-1.882,5.053-2.231,5.906c-1.334,3.391-2.177,5.195-2.526,5.414
			c-0.919-0.459-1.378-1.345-1.378-2.657c0-0.788,0.612-3.795,1.838-9.023c0.306-1.291,0.459-2.122,0.459-2.494
			c0-0.284-0.061-0.705-0.18-1.263c-0.121-0.558-0.181-0.979-0.181-1.263c0-0.897,0.421-1.969,1.263-3.216
			c0.842-1.247,1.264-2.111,1.264-2.592c0-0.525-0.274-1.148-0.82-1.871h0.328c0.7,0,1.378,0.35,2.034,1.05
			C81.789,5.266,82.149,5.955,82.281,6.677z"/>
		<path fill="#482B24" d="M103.642,24.056c0,0.723-0.373,1.083-1.116,1.083c-0.503,0-1.624-0.333-3.363-1.001
			c-1.739-0.667-3.155-1-4.249-1c-1.882,0-3.697,0.251-5.447,0.754c-2.013,0.591-3.631,1.434-4.856,2.527l-0.427-0.328v-1.444
			c0.284-0.481,1.104-0.974,2.461-1.477c1.793-0.656,2.986-1.17,3.577-1.542c1.291-0.788,2.089-1.81,2.396-3.068
			c0.306-1.258,0.459-2.828,0.459-4.708c0-1.859-0.339-3.084-1.017-3.675c0-0.438,0.175-0.886,0.525-1.345
			c-0.809-0.131-1.619-0.263-2.428-0.394c-1.006-0.197-1.695-0.558-2.067-1.083l0.427-0.033c0.438-0.241,1.083-0.492,1.936-0.755
			c2.472-0.766,4.277-1.542,5.414-2.33h0.263c2.318-0.044,3.741,0.361,4.266,1.214c-0.044,0.591-0.602,1.018-1.673,1.28
			c-1.072,0.263-2.133,0.514-3.183,0.755c-1.269,0.438-2.089,1.159-2.461,2.166c0.569,0.241,1.148,0.47,1.739,0.689
			c0.612,0.328,0.919,0.82,0.919,1.477c-0.241,0.306-0.471,1.28-0.689,2.92c-0.153,1.116-0.295,2.22-0.426,3.314
			c-0.197,0.919-0.459,1.903-0.788,2.953c0.809-0.065,1.608-0.098,2.396-0.098c1.553,0,2.789,0.12,3.708,0.361
			c1.247,0.328,2.351,0.93,3.314,1.804C103.51,23.313,103.642,23.641,103.642,24.056z"/>
	</g>
</g>
<polygon fill="none" stroke="#E60012" stroke-width="1.5" stroke-linecap="round" stroke-linejoin="round" stroke-miterlimit="10" points="
	0.75,12.675 5.63,4.223 10.51,12.675 "/>
<polygon fill="none" stroke="#E60012" stroke-width="1.5" stroke-linecap="round" stroke-linejoin="round" stroke-miterlimit="10" points="
	10.51,12.675 17.83,4.223 25.149,12.675 "/>
<polygon fill="none" stroke="#E60012" stroke-width="1.5" stroke-linecap="round" stroke-linejoin="round" stroke-miterlimit="10" points="
	25.15,12.675 30.03,4.223 34.91,12.675 "/>
<polygon fill="none" stroke="#E60012" stroke-width="1.5" stroke-linecap="round" stroke-linejoin="round" stroke-miterlimit="10" points="
	0.75,12.675 17.83,29.735 10.51,12.675 "/>
<polygon fill="none" stroke="#E60012" stroke-width="1.5" stroke-linecap="round" stroke-linejoin="round" stroke-miterlimit="10" points="
	10.51,12.675 17.83,29.735 25.149,12.675 "/>
<polygon fill="none" stroke="#E60012" stroke-width="1.5" stroke-linecap="round" stroke-linejoin="round" stroke-miterlimit="10" points="
	25.15,12.675 17.83,29.735 34.91,12.675 "/>
<polygon fill="none" stroke="#E60012" stroke-width="1.5" stroke-linecap="round" stroke-linejoin="round" stroke-miterlimit="10" points="
	5.63,4.223 10.51,12.675 17.83,4.223 "/>
<polygon fill="none" stroke="#E60012" stroke-width="1.5" stroke-linecap="round" stroke-linejoin="round" stroke-miterlimit="10" points="
	17.83,4.223 25.149,12.675 30.029,4.223 "/>
</svg>
