<?xml version="1.0" encoding="utf-8"?>
<!-- Generator: Adobe Illustrator 16.0.0, SVG Export Plug-In . SVG Version: 6.00 Build 0)  -->
<!DOCTYPE svg PUBLIC "-//W3C//DTD SVG 1.1//EN" "http://www.w3.org/Graphics/SVG/1.1/DTD/svg11.dtd">
<svg version="1.1" xmlns="http://www.w3.org/2000/svg" xmlns:xlink="http://www.w3.org/1999/xlink" x="0px" y="0px"
	 width="202.569px" height="163.198px" viewBox="-54.032 -4 202.569 163.198" enable-background="new -54.032 -4 202.569 163.198"
	 xml:space="preserve">
<g id="レイヤー_2">
	<polygon fill="#EFC4CE" stroke="#F7F7F7" stroke-width="5" stroke-linejoin="round" stroke-miterlimit="10" points="
		-47.991,53.127 -20.782,5.994 6.431,53.127 	"/>
	<polygon fill="#EFC4CE" stroke="#F7F7F7" stroke-width="5" stroke-linejoin="round" stroke-miterlimit="10" points="6.431,53.127 
		47.251,5.994 88.069,53.127 	"/>
	<polygon fill="#EFC4CE" stroke="#F7F7F7" stroke-width="5" stroke-linejoin="round" stroke-miterlimit="10" points="88.069,53.127 
		115.283,5.994 142.496,53.127 	"/>
	<polygon fill="#EFC4CE" stroke="#F7F7F7" stroke-width="5" stroke-linejoin="round" stroke-miterlimit="10" points="
		-47.991,53.127 47.251,148.259 6.431,53.127 	"/>
	<polygon fill="#EFC4CE" stroke="#F7F7F7" stroke-width="5" stroke-linejoin="round" stroke-miterlimit="10" points="6.431,53.127 
		47.251,148.259 88.069,53.127 	"/>
	<polygon fill="#EFC4CE" stroke="#F7F7F7" stroke-width="5" stroke-linejoin="round" stroke-miterlimit="10" points="88.069,53.127 
		47.251,148.259 142.496,53.127 	"/>
	<polygon fill="#EFC4CE" stroke="#F7F7F7" stroke-width="5" stroke-linejoin="round" stroke-miterlimit="10" points="-20.78,5.994 
		6.431,53.127 47.251,5.994 	"/>
	<polygon fill="#EFC4CE" stroke="#F7F7F7" stroke-width="5" stroke-linejoin="round" stroke-miterlimit="10" points="47.251,5.994 
		88.069,53.127 115.28,5.994 	"/>
</g>
<g id="レイヤー_1">
	<g>
		<path fill="#391E21" d="M22.922,133.23c-0.219,0.062-0.719,0.25-1.5,0.562c-0.562,0.25-1.172,0.375-1.827,0.375
			c-2.156,0-4.22-0.719-6.188-2.156c-1.438-1.062-3.031-2.688-4.781-4.875c-1.344-1.719-2.688-3.453-4.03-5.203
			c-1.72-2.031-3.703-3.983-5.953-5.858c-2.781,3.469-5.297,6.938-7.547,10.405c-2.531,3.97-4.142,6.422-4.828,7.359
			c-1.97,2.719-3.906,4.875-5.812,6.469l-1.172-0.375c-0.188-0.469-0.282-0.983-0.282-1.547c0-1.562,0.892-3.578,2.672-6.047
			l0.234,0.047c-0.094,0.469-0.141,0.922-0.141,1.359s0.047,0.844,0.141,1.219c2.594-2.469,5.359-5.828,8.297-10.078
			c2.781-4.062,4.969-7.828,6.562-11.297l-1.22-0.188c0.062-0.594,0.734-1.281,2.017-2.062c1.25,0.188,2.312,0.516,3.188,0.984
			l-1.125,2.109c1.625,0.75,3.656,2.344,6.095,4.78c3.188,3.156,5.125,4.984,5.812,5.484c0.125,0.125,2.203,1.452,6.234,3.983
			C20.609,130.465,22.328,131.98,22.922,133.23z M12.797,147.575c0,2.062-0.812,3.062-2.438,3h-0.328
			c-0.562-0.5-1.109-1.345-1.641-2.531c-0.595-1.405-1.048-2.312-1.359-2.719c-3.562,1-7.766,2.344-12.609,4.03
			c-1.312,0.406-2.625,0.828-3.938,1.267c-1.531,0.53-2.734,1.172-3.609,1.922c-0.75-0.53-1.25-1.344-1.5-2.438l0.328-0.983
			c2.781-0.656,6.531-4.358,11.25-11.108c-3.906,1.312-6.828,2.375-8.766,3.188c-0.906-0.562-1.453-1.578-1.642-3.047
			c5.062-3.438,8.812-7.047,11.25-10.828l-3.233-0.703c0.188-0.344,1-0.844,2.438-1.5c1.438-0.656,2.406-0.984,2.906-0.984
			c0.969,0,2.016,0.188,3.141,0.562c1.47,0.5,2.203,1.141,2.203,1.922c0,0.75-0.516,1.125-1.547,1.125
			c-1.688,0-4.188,1.188-7.5,3.562c-2.562,1.875-4.75,3.766-6.562,5.672l0.469,0.233c3.438-0.78,7.266-2.188,11.484-4.219
			c1.969,0.219,3.422,0.672,4.358,1.358c-0.125,0.97-0.641,1.562-1.547,1.781c-0.469,0.094-1.156,0.266-2.062,0.516
			c-0.438,0.125-1.234,0.72-2.392,1.781c-1.844,1.688-4.016,4.484-6.516,8.392c2.719-1.188,6.953-2.423,12.703-3.703
			c-0.906-1.438-1.923-2.578-3.048-3.422l0.048-0.281h0.375c2.062-0.062,3.969,0.672,5.719,2.203c0.75,0.688,1.5,1.608,2.25,2.767
			C12.359,145.7,12.797,146.762,12.797,147.575z"/>
		<path fill="#391E21" d="M42.281,119.59c0,0.594-0.25,1.031-0.75,1.312c-0.625,0.188-1.547,0.562-2.766,1.125
			c-0.406,0.281-1.578,1.391-3.517,3.328l-0.608,0.233l1.922-3.469c-2.906,0.938-6.531,3.03-10.875,6.28l-0.328-0.75
			c0-0.688,0.031-1.297,0.094-1.827c1.312-1,3.625-2.375,6.938-4.125c3.5-1.875,5.905-2.938,7.219-3.188
			C40.828,118.762,41.719,119.122,42.281,119.59z M39.609,139.23c-0.344,1.062-0.734,2.234-1.172,3.517
			c-0.595,1.75-1.392,4.422-2.392,8.017l-0.516,0.233c-0.875-1-1.312-1.767-1.312-2.297c0-0.812,0.281-1.609,0.845-2.392
			c-0.25-0.594-0.531-0.891-0.845-0.891c-0.75,0-1.655,0.516-2.719,1.547c-0.906,0.938-1.531,1.812-1.875,2.625l-0.703,0.516
			l-0.655-1.594l0.141-1.688c0.656-0.875,1.641-2.203,2.953-3.984c0.781-1.031,1.938-2.625,3.469-4.781h-0.281
			c-1.155-0.031-2.219,0.142-3.188,0.517l-0.609-1.642c1.531-2.438,2.609-4.375,3.234-5.812c-0.656,0.094-1.125,0.142-1.406,0.142
			c-0.969,0-1.453-0.281-1.453-0.845c0.25-0.125,1.203-0.812,2.859-2.062c1.188-0.875,2.203-1.312,3.047-1.312
			c1.062,0,1.828,0.375,2.297,1.125c-1.625,1.281-2.781,2.312-3.469,3.094c-0.906,0.938-1.812,2.188-2.719,3.75
			c1.375-0.281,2.172-0.422,2.391-0.422c1.281,0,2.078,0.328,2.391,0.984c-1.719,2.031-3.297,4.766-4.733,8.203
			c0.562-0.125,1.125-0.188,1.688-0.188c0.5,0,1,0.062,1.5,0.188c0.595-1.25,1.672-2.969,3.234-5.156L39.609,139.23L39.609,139.23z
			 M39.281,114.575c0.031,0.344-0.078,0.664-0.328,0.961s-1.18,0.883-2.789,1.758c-1.608,0.875-2.602,1.358-2.977,1.453l2.016-3.281
			l-1.406-1.312c0.595-0.719,1.234-1.078,1.923-1.078c1.28,0,2.469,0.453,3.562,1.359V114.575z M70.359,153.152
			c0,0.688-0.328,1.142-0.984,1.359c-1.5-0.062-3.141-1.328-4.922-3.797c-0.688-0.906-1.828-2.781-3.422-5.625
			c-0.125,0.094-1.188,1.141-3.188,3.141c-1.655,1.625-2.702,2.484-3.141,2.578c-0.656-0.625-0.984-1.483-0.984-2.578
			c0-1.344,0.845-3.844,2.531-7.5l0.094,0.47c-0.375,1.562-0.562,2.875-0.562,3.938c0,0.688,0.078,1.28,0.234,1.78
			c1.188-0.905,2.5-2.453,3.938-4.642c-0.844-1.25-1.562-2.844-2.156-4.78c-0.938,0.062-2.391,0.797-4.358,2.203
			c-1.75,1.219-3.047,2.297-3.892,3.233c0.156,1.594,0.234,3.297,0.234,5.109c0,1.469-0.609,3.125-1.828,4.969
			c-0.875-0.125-1.5-0.562-1.875-1.312s-0.719-1.484-1.031-2.203c-0.25-0.438-0.719-1.125-1.405-2.062
			c-1.031,0.812-2.109,2.094-3.234,3.844c-0.656,0-0.984-0.797-0.984-2.392c0.75-1.125,1.642-2.233,2.673-3.327
			c-0.688-1.095-1.25-2.203-1.688-3.328c0.156-1.25,1.094-2.578,2.812-3.984c1.344-1.125,2.766-2.016,4.266-2.672
			c-0.031-0.562-0.188-1.125-0.469-1.688c-1.375,0.562-2.672,0.906-3.892,1.031l-0.608-0.328c1.469-1.155,3.547-3.016,6.233-5.578
			l-0.375-0.469c-0.938,0.25-2.828,1.172-5.672,2.767c-0.344-0.188-0.531-0.547-0.562-1.078c0-0.406,0-0.828,0-1.267
			c0.75-0.75,1.438-1.125,2.062-1.125c0.188,0,0.344,0.047,0.469,0.142c3.062-1.438,5.517-2.547,7.359-3.328l-0.047-1.406
			c-1.281,0.469-2.267,0.703-2.953,0.703c-0.594,0-1.234-0.172-1.922-0.516l0.141-0.234c1.906-0.656,3.47-1.375,4.688-2.156
			l-0.517-1.5c-1.438,0.781-3.016,1.281-4.733,1.5l-2.062-1.078l0.234-0.328c1.469-0.219,2.641-0.547,3.516-0.984
			c-0.969-1.03-1.547-2.03-1.733-3c0.094-0.53,0.141-1.047,0.141-1.547c0-0.469-0.047-0.922-0.141-1.358l0.28-0.047
			c1.5,0.344,2.5,0.983,3,1.922l1.875-0.983l-0.094,0.375c-0.531,0.562-1.062,1.141-1.594,1.733
			c-0.594,0.688-0.875,1.375-0.844,2.062v0.234c1.688-0.625,2.883-1.172,3.586-1.641s1.647-1.359,2.836-2.672
			c0.438-0.531,1.156-1.281,2.156-2.25v-0.234c0-0.406-0.234-0.844-0.703-1.312l1.312-0.469c0.531,0.031,1.078,0.078,1.642,0.141
			c0.562,0.063,0.938,0.359,1.125,0.892c-0.062,0.469-0.828,1.203-2.298,2.203c-0.405,0.28-1.422,1.233-3.047,2.858
			c1.562-0.594,2.547-0.891,2.953-0.891c1.438,0,2.156,0.516,2.156,1.547c0,0.438-0.219,0.75-0.656,0.938
			c-0.031,0.031-0.483,0.078-1.358,0.142c-2.72,0.281-4.642,0.845-5.767,1.688c0.438,0.375,0.719,0.766,0.844,1.172
			c0.5-0.188,1.188-0.281,2.062-0.281c0.562,0,1,0.234,1.312,0.703l-0.094,0.562c-0.156,0.25-0.664,0.469-1.522,0.655
			c-0.859,0.187-1.398,0.453-1.617,0.797c-0.031,0.531-0.078,1.095-0.142,1.688c2.562-0.75,4.938-1.125,7.125-1.125
			c1.688,0,2.845,0.5,3.47,1.5c0,1.281-0.595,1.922-1.781,1.922c-0.438,0-1.086-0.047-1.945-0.141
			c-0.858-0.095-1.508-0.142-1.944-0.142c-0.72,0-1.359,0.047-1.923,0.142l0.562,0.703l-0.469,0.983
			c0.125,1.812,0.594,3.655,1.405,5.53c1.312-0.938,1.97-1.844,1.97-2.719c1.469,0,2.625,0.469,3.469,1.406
			c-0.062,0.719-0.703,1.422-1.922,2.109c-1.406,0.812-2.22,1.438-2.438,1.875c0.188,0.844,0.703,2.047,1.547,3.609
			c0.75-1.22,1.095-2.095,1.031-2.625l0.562-0.75c0.625-0.125,1.094-0.188,1.405-0.188c0.845,0,1.297,0.203,1.359,0.608
			c-0.219,0.562-0.758,1.414-1.617,2.556c-0.858,1.141-1.383,2.055-1.57,2.741c1.47,2.562,2.875,4.375,4.22,5.438
			c0.312-0.969,0.483-2.233,0.516-3.797c0.062-2,0.125-3.267,0.188-3.797c0.688,1.03,1.172,2.375,1.452,4.03
			c0.188,1.438,0.375,2.859,0.562,4.267c0.062,0.345,0.281,1.125,0.656,2.345C70.219,151.73,70.359,152.527,70.359,153.152z
			 M47.438,137.168c-1.156,0.156-2.359,0.719-3.609,1.688c-1.375,1.062-2.062,2.125-2.062,3.188c0,0.312,0.405,1.125,1.219,2.438
			c0.781-1.188,1.578-2.375,2.391-3.562C46.25,139.512,46.938,138.262,47.438,137.168z M47.391,145.887
			c0-0.469-0.031-0.984-0.095-1.547c-0.75,0.906-1.469,1.641-2.155,2.203c0.655,0.719,1.203,1.281,1.641,1.688
			C47.188,147.668,47.391,146.887,47.391,145.887z M56.859,134.637c-0.281-0.594-0.734-1.969-1.359-4.125
			c-0.5-1.719-1.094-3.031-1.78-3.938c-1,0.188-2.359,0.688-4.078,1.5c0.219,0.312,0.641,0.609,1.266,0.891
			c0.625,0.282,1.047,0.531,1.266,0.75c-0.188,0.469-0.491,0.805-0.914,1.008c-0.422,0.203-0.819,0.414-1.194,0.633
			c-0.5,0.345-1.203,0.892-2.109,1.642l0.797,0.655l0.234,0.984c0.438-0.125,0.828-0.188,1.172-0.188
			c0.625,0,1.031,0.203,1.219,0.609c-0.094,0.28-0.483,0.914-1.172,1.897c-0.688,0.983-1.031,1.539-1.031,1.664v0.938
			C51.641,137.997,54.203,136.355,56.859,134.637z M69.562,130.7c0,0.53-0.345,0.969-1.031,1.312
			c-2.594-0.156-4.469-1.141-5.625-2.953l0.422-0.328c0.75-0.155,1.5-0.233,2.25-0.233C68.234,128.497,69.562,129.23,69.562,130.7z"
			/>
	</g>
	<g>
		<path fill="#391E21" d="M5.789,7.859c0,0.719-0.438,1.484-1.312,2.297c-0.157,0.157-1,0.594-2.531,1.312
			c-2.875,1.375-4.938,2.812-6.188,4.312c-0.719,0.844-1.25,1.906-1.594,3.188c-1.75,6.813-5.047,11.985-9.891,15.516
			c-1.156,0.844-2.172,1.437-3.047,1.781c-0.688-0.312-1.031-1.484-1.031-3.516c0-0.75,0.218-1.656,0.656-2.719
			c0.593-1.281,0.938-2.141,1.03-2.578l0.235,0.048c0.125,1.219,0.359,2.109,0.703,2.672h0.188c0.562,0.031,1.267-0.203,2.109-0.703
			c3.312-2.062,5.531-6.579,6.656-13.547c-3.438,0.219-5.032,0.328-4.781,0.328c-1.5,0-3.406-0.687-5.719-2.062l0.281-0.234
			c2.625-0.469,4.594-0.859,5.905-1.172c2.5-0.625,4.359-1.328,5.578-2.109C-6.9,9.954-6.634,8.376-6.165,5.939
			c0.345-1.969,0.5-3.562,0.47-4.781V0.641C-6.54,0.079-7.43-0.203-8.368-0.203L-8.79-0.578c0.345-0.719,0.72-1.46,1.125-2.227
			c0.406-0.766,1.016-1.148,1.828-1.148c0.125,0,0.312,0.016,0.562,0.047c0.25,0.031,0.438,0.047,0.562,0.047
			c2.125,0,3.312,0.734,3.562,2.203c-0.72,0.781-1.203,1.61-1.453,2.484C-2.667,1.39-2.761,2.203-2.885,3.266
			C-3.104,4.61-3.432,6.625-3.869,9.313c1.531-0.593,2.781-1.469,3.75-2.625l0.234-1.734c0.218,0.157,0.688,0.359,1.406,0.609
			c1.718,0.25,2.608,0.391,2.672,0.422C5.257,6.297,5.789,6.922,5.789,7.859z M15.398,32.938c0,0.844-0.579,1.266-1.734,1.266
			c-0.938,0-2.094-0.141-3.469-0.422c-1.125-0.281-2.25-0.547-3.375-0.797c-0.594-0.031-1.453-0.141-2.578-0.328
			c2.562-0.438,4.266-1.047,5.109-1.828c-1.282-1.781-3.656-3.516-7.125-5.203c-0.47-0.219-1.156-0.578-2.062-1.078l0.375-0.141
			c3,0.062,6.031,0.75,9.094,2.062C13.477,28.188,15.398,30.344,15.398,32.938z"/>
		<path fill="#391E21" d="M111.164,9.219c0,0.781-1.094,1.266-3.281,1.453c-0.719,0.625-1.766,1.344-3.141,2.156
			c-1.594,0.907-2.672,1.578-3.234,2.016c0.656,0.469,1.297,0.984,1.923,1.547l0.375,1.406c-0.688,0.813-1.688,1.375-3,1.688
			c-0.688,0.094-1.704,0.234-3.048,0.422c-2.125,0.312-4.297,0.688-6.516,1.125l-1.359-0.422c-0.5,0.094-0.961,0.406-1.383,0.938
			c-0.422,0.532-1.272,2.188-2.555,4.969c-1.5,3.281-3.125,5.625-4.875,7.031c-1.875,1.5-4.563,2.515-8.062,3.047l-0.516-0.141
			c3.593-2.469,6.789-5.617,9.586-9.445c2.796-3.828,4.789-7.821,5.978-11.977L87.305,14l1.5-0.938l2.812,0.984
			c-0.812,1.625-1.219,2.656-1.219,3.094c0,0.25,0.031,0.5,0.094,0.75c3.656-0.906,6.344-1.969,8.062-3.188
			c1.343-0.938,3.391-2.984,6.141-6.141c-0.969-0.344-1.985-0.516-3.047-0.516c-2.562,0-6.148,0.797-10.758,2.391
			c-4.61,1.594-7.931,3.172-9.961,4.734l-1.22-0.188v-0.328c-0.03-0.593,0.109-1.406,0.422-2.438l-0.141-1.031
			c0.625-0.188,1.484-0.687,2.578-1.5l0.797,1.359c2.781-1.188,6.25-2.438,10.406-3.75c5.093-1.625,8.594-2.438,10.5-2.438
			c0.5,0,1.062,0.11,1.688,0.328c0.625,0.219,1.595,0.797,2.906,1.734C110.398,7.984,111.164,8.75,111.164,9.219z M101.039,0.406
			c-0.375,0.25-0.797,0.391-1.266,0.422c1-0.031,0.546-0.047-1.359-0.047c-1,0-2.266,0.359-3.797,1.078
			c-1.188,0.625-2.375,1.235-3.562,1.828l2.766-3.469c-0.25-0.438-0.609-0.766-1.078-0.984c-0.469-0.218-0.75-0.391-0.844-0.516
			C91.68-1.5,91.508-1.844,91.383-2.313s-0.25-0.766-0.375-0.891L91.383-4c1.406,0.406,2.812,0.609,4.22,0.609
			c0.844,0,1.641-0.062,2.391-0.188c1.094,0.75,2.031,1.61,2.812,2.578L101.039,0.406z"/>
		<path fill="#391E21" d="M36.244,3.335c-1.031,1.375-1.985,2.062-2.859,2.062c-1,0-1.905,0.43-2.719,1.289
			c-0.812,0.859-1.219,1.773-1.219,2.742c0,0.344,0.265,1.117,0.797,2.32c0.531,1.203,0.797,2.18,0.797,2.93
			c0,1.031-0.194,2.555-0.586,4.57c-0.391,2.016-0.586,3.539-0.586,4.57c0,0.531,0.031,1.094,0.094,1.688
			c1.156-1.844,2.767-4.656,4.828-8.438l0.094,0.469c-1.625,4.406-2.688,7.219-3.188,8.438c-1.906,4.844-3.11,7.422-3.609,7.734
			c-1.312-0.656-1.969-1.922-1.969-3.797c0-1.125,0.875-5.422,2.625-12.891c0.438-1.844,0.656-3.031,0.656-3.562
			c0-0.406-0.086-1.008-0.258-1.805c-0.172-0.797-0.259-1.398-0.259-1.805c0-1.281,0.603-2.812,1.806-4.594
			c1.203-1.781,1.805-3.016,1.805-3.703c0-0.75-0.391-1.641-1.172-2.672h0.469c1,0,1.969,0.5,2.906,1.5
			C35.541,1.32,36.056,2.304,36.244,3.335z"/>
		<path fill="#391E21" d="M66.759,28.164c0,1.031-0.531,1.547-1.594,1.547c-0.719,0-2.319-0.477-4.805-1.43
			c-2.485-0.953-4.508-1.43-6.07-1.43c-2.688,0-5.281,0.359-7.781,1.078c-2.875,0.844-5.188,2.047-6.938,3.609l-0.609-0.469v-2.062
			c0.406-0.688,1.578-1.391,3.517-2.109c2.562-0.938,4.266-1.672,5.108-2.203c1.845-1.125,2.984-2.586,3.422-4.383
			c0.438-1.797,0.656-4.039,0.656-6.727c0-2.656-0.484-4.406-1.453-5.25c0-0.625,0.25-1.266,0.75-1.922
			c-1.155-0.188-2.312-0.375-3.469-0.562c-1.438-0.281-2.422-0.797-2.953-1.547l0.609-0.047c0.625-0.344,1.547-0.703,2.766-1.078
			c3.531-1.094,6.109-2.203,7.734-3.328h0.375c3.312-0.062,5.344,0.516,6.094,1.734c-0.062,0.844-0.86,1.453-2.391,1.828
			c-1.531,0.375-3.047,0.734-4.547,1.078c-1.812,0.625-2.984,1.656-3.517,3.094c0.812,0.344,1.642,0.672,2.484,0.984
			c0.875,0.469,1.312,1.172,1.312,2.109c-0.344,0.438-0.672,1.828-0.983,4.172c-0.22,1.594-0.422,3.172-0.609,4.734
			c-0.281,1.312-0.656,2.719-1.125,4.219c1.156-0.094,2.297-0.141,3.422-0.141c2.219,0,3.984,0.172,5.297,0.516
			c1.781,0.469,3.359,1.328,4.734,2.578C66.572,27.101,66.759,27.57,66.759,28.164z"/>
	</g>
	<g>
		<path fill="#391E21" d="M85.102,118.27c1.023,0,2.049,0.287,3.073,0.863s1.938,1.512,2.741,2.809
			c0.804,1.295,1.454,2.983,1.952,5.062c0.499,2.081,0.748,4.625,0.748,7.633s-0.25,5.553-0.748,7.633s-1.148,3.768-1.952,5.062
			c-0.804,1.297-1.717,2.232-2.741,2.809s-2.049,0.863-3.073,0.863c-1.054,0-2.083-0.287-3.095-0.863s-1.91-1.512-2.699-2.809
			c-0.789-1.296-1.434-2.982-1.932-5.062c-0.499-2.08-0.748-4.625-0.748-7.633s0.25-5.552,0.748-7.633
			c0.498-2.079,1.143-3.768,1.932-5.062c0.79-1.297,1.688-2.231,2.699-2.809C83.018,118.557,84.049,118.27,85.102,118.27z
			 M85.143,119.709c-0.831,0-1.552,0.344-2.16,1.031c-0.609,0.688-1.115,1.68-1.517,2.977c-0.4,1.295-0.699,2.863-0.894,4.703
			c-0.193,1.841-0.291,3.896-0.291,6.168c0,2.273,0.097,4.337,0.291,6.192s0.492,3.433,0.894,4.728c0.401,1.297,0.907,2.297,1.517,3
			c0.607,0.705,1.329,1.057,2.16,1.057s1.543-0.352,2.139-1.057c0.596-0.703,1.093-1.703,1.496-3c0.4-1.295,0.699-2.871,0.893-4.728
			c0.193-1.855,0.291-3.919,0.291-6.192c0-2.271-0.098-4.327-0.291-6.168c-0.193-1.84-0.492-3.408-0.893-4.703
			c-0.402-1.297-0.9-2.287-1.496-2.977C86.686,120.053,85.974,119.709,85.143,119.709z"/>
		<path fill="#391E21" d="M97.32,137.805l4.236-18.769h3.031c0.167,0.192,0.396,0.36,0.686,0.505
			c0.291,0.145,0.603,0.264,0.935,0.359c0.333,0.096,0.665,0.168,0.998,0.216c0.332,0.048,0.623,0.071,0.872,0.071
			c0.748,0,1.481-0.136,2.201-0.407s1.397-0.647,2.036-1.128l0.582,0.768c-1.329,1.057-2.617,1.944-3.863,2.664
			c-1.247,0.721-2.7,1.08-4.361,1.08c-0.36,0-0.728-0.039-1.101-0.119s-0.741-0.168-1.1-0.265l-2.617,10.079
			c0.636-0.352,1.343-0.68,2.119-0.982c0.774-0.305,1.633-0.457,2.574-0.457c1.19,0,2.306,0.186,3.345,0.553
			c1.039,0.368,1.944,0.928,2.72,1.68s1.377,1.714,1.807,2.881c0.431,1.169,0.645,2.566,0.645,4.199
			c0,1.664-0.264,3.138-0.789,4.416c-0.526,1.28-1.239,2.353-2.139,3.217c-0.9,0.863-1.952,1.521-3.156,1.968
			c-1.205,0.448-2.486,0.672-3.842,0.672c-0.748,0-1.545-0.137-2.389-0.407c-0.845-0.271-1.627-0.673-2.347-1.199
			c-0.721-0.528-1.323-1.176-1.807-1.944c-0.485-0.769-0.729-1.647-0.729-2.64c0-0.896,0.146-1.615,0.438-2.16
			c0.291-0.545,0.795-0.816,1.516-0.816c0.582,0,1.08,0.232,1.495,0.696c0.416,0.464,0.623,1.112,0.623,1.944
			c0,0.641-0.057,1.104-0.166,1.392c-0.111,0.288-0.167,0.655-0.167,1.104c0,0.416,0.151,0.783,0.458,1.104
			c0.304,0.32,0.678,0.593,1.121,0.816c0.442,0.225,0.906,0.393,1.391,0.504s0.907,0.168,1.268,0.168
			c0.664,0,1.322-0.168,1.973-0.504s1.247-0.849,1.787-1.537c0.54-0.688,0.976-1.543,1.308-2.566s0.499-2.24,0.499-3.648
			c0-1.088-0.111-2.119-0.332-3.096c-0.222-0.977-0.576-1.832-1.06-2.568c-0.484-0.735-1.087-1.319-1.808-1.752
			c-0.72-0.432-1.578-0.647-2.575-0.647c-1.411,0-2.555,0.449-3.427,1.344c-0.872,0.896-1.529,2.064-1.973,3.504L97.32,137.805z"/>
	</g>
	
		<linearGradient id="SVGID_1_" gradientUnits="userSpaceOnUse" x1="53.7141" y1="69.9722" x2="53.7141" y2="135.4517" gradientTransform="matrix(1 0 0 -1 -8.3599 179.5664)">
		<stop  offset="0.3" style="stop-color:#C30D23"/>
		<stop  offset="1" style="stop-color:#391E21"/>
	</linearGradient>
	<path fill="url(#SVGID_1_)" d="M100.569,66.619c-0.46,0-0.938,0.048-1.424,0.145c-0.347,0.071-1.082,0.322-3.693,1.657
		c-0.262,0.131-0.697,0.348-3.36,4.88c-1.68,2.858-3.543,5.271-5.538,7.177c-2.608,2.499-3.604,2.769-3.913,2.769
		c-0.17,0-0.317,0-0.317-0.55c0-0.382,0.293-1.587,2.237-5.396c1.516-2.967,2.659-5.023,3.397-6.108
		c0.837-1.228,1.243-2.172,1.243-2.886c0-0.528-0.207-1.754-2.121-1.754c-1.111,0-2.173,0.299-3.154,0.89
		c-0.257,0.151-0.582,0.402-0.993,0.768c-0.421,0.371-0.668,0.608-0.803,0.77c-0.109,0.133-0.728,0.828-1.854,2.086
		c-1.145,1.279-2.65,3.171-4.417,5.552c-0.028,0.028-0.048,0.062-0.073,0.092c-1.032,1.057-2.543,2.296-3.45,3.014
		c2.465-3.311,3.96-6.675,4.446-10.082V69.04c0-2.004-1.225-2.222-1.754-2.222c-2.043,0-4.913,1.729-8.733,5.274
		c0.254-0.602,0.54-1.285,0.858-2.048c0.848-2.036,1.555-3.679,2.164-5.022c0.619-1.377,1.426-3.043,2.392-4.952
		c0.956-1.891,1.937-3.509,2.914-4.815c0.98-1.306,2.105-2.585,3.345-3.802c1.208-1.187,2.557-2.099,4.012-2.71
		c1.456-0.61,3.048-0.92,4.736-0.92c2.053,0,2.053,0.83,2.053,1.186c0,0.076,0.026,0.751,0.918,0.751
		c0.541,0,0.918-0.364,0.918-0.887L90.603,46.9c-0.057-0.907-0.435-1.615-1.128-2.104c-0.639-0.451-1.387-0.681-2.226-0.681
		c-3.137,0-6.664,1.958-10.783,5.987c-5.045,4.957-9.816,12.113-14.18,21.27l-2.217,2.609c-0.278,0.327-0.527,0.619-0.756,0.887
		l-0.413,0.413c-0.047,0.045-0.256,0.276-0.655,0.729c-1.522,1.999-3.259,3.757-5.164,5.228c-2.237,1.747-3.189,2.007-3.559,2.007
		c-0.229,0-0.383-0.569-0.383-1.417c0-0.87,0.436-2.85,2.515-7.355c2.026-4.397,3.396-5.606,4.194-5.844
		c1.078-0.331,1.305-0.938,1.305-1.392c0-0.7-0.472-0.885-0.751-0.885c-0.24,0-0.414,0.074-0.534,0.159
		c-0.71,0.337-1.72,0.507-3.005,0.507h-0.936c-0.434,0-0.735,0.312-1.349,1.401c-2.937,5.613-5.817,9.782-8.559,12.393
		c-2.23,2.117-3.201,2.434-3.58,2.434c-0.17,0-0.317,0-0.317-0.55c0-0.381,0.29-1.588,2.236-5.396
		c1.517-2.968,2.66-5.022,3.398-6.108c0.835-1.228,1.243-2.173,1.243-2.886c0-0.527-0.206-1.754-2.121-1.754
		c-1.112,0-2.174,0.298-3.154,0.889c-0.258,0.153-0.583,0.403-0.995,0.768c-0.421,0.371-0.667,0.608-0.801,0.771
		c-0.112,0.133-0.729,0.827-1.855,2.085c-1.093,1.224-2.524,3.018-4.223,5.286c-0.015,0.021-0.033,0.041-0.048,0.062
		c-3.555,4.667-6.759,7.035-9.524,7.035c-1.756,0-3.438-0.956-4.995-2.843c-2.571-3.183-4.749-6.657-6.486-10.337
		c2.197-0.173,4.463-0.54,6.751-1.092c2.65-0.639,4.756-1.516,6.261-2.605c1.487-1.074,2.81-2.363,3.935-3.831
		c1.169-1.528,1.764-3.608,1.764-6.183c0-3.76-1.651-6.181-4.903-7.201c-1.569-0.507-3.115-0.762-4.61-0.762h-0.001L17.34,48.66
		c-0.7,0-1.399-0.021-2.142-0.066L5.319,48.66c-1.59,0-2.837,0.023-3.715,0.068c-5.52,0.382-8.319,2.164-8.319,5.292
		c0,1.188,0.481,2.535,1.442,4.021c0.831,1.217,1.193,1.535,1.412,1.672c0.446,0.289,0.959,0.286,1.398,0.002
		c0.43-0.271,0.497-0.585,0.478-0.801c-0.015-0.17-0.105-0.483-0.447-0.612c-0.523-0.327-0.778-0.897-0.778-1.745
		c0-2.529,2.106-4.145,6.44-4.935c3.328-0.614,5.83-0.925,7.433-0.925c0.283,0,0.552,0.001,0.807,0.003
		c-0.845,0.533-1.445,1.134-1.81,1.809c-0.187,0.327-0.522,1.008-1.024,2.082c-0.489,1.044-1.043,2.185-1.664,3.424
		c-0.615,1.231-1.802,3.446-3.528,6.589c-1.737,3.163-3.353,6.137-4.843,8.92c-1.498,2.792-3.256,5.896-5.238,9.236
		c-0.937,1.67-2.191,2.619-3.837,2.898l-0.167,0.055c-0.302,0.146-0.481,0.429-0.481,0.757c0,0.306,0.141,1.019,1.453,1.019
		c0.469,0,1.308-0.185,3.629-1.627c1.437-0.88,1.981-0.976,2.147-0.976c0.116,0,0.26,0.011,0.435,0.028
		c0.178,0.021,0.317,0.038,0.402,0.057c0.089,0.019,0.204,0.055,0.352,0.111c0.191,0.068,0.346,0.111,0.482,0.128
		c0.974,0.349,1.353,0.014,1.481-0.185c0.109-0.169,0.202-0.458-0.004-0.919c-0.054-0.101-0.265-0.732,0.889-3.324
		c0.4-0.891,0.823-1.825,1.269-2.804c0.438-0.964,0.95-2.01,1.52-3.109c0.576-1.105,1.085-2.06,1.53-2.856
		c0.445-0.801,0.892-1.618,1.338-2.445c0.449-0.832,0.785-1.47,1.011-1.921c0.223-0.443,0.79-1.591,1.704-3.442
		c0.909-1.839,1.652-3.302,2.229-4.389c0.572-1.076,1.298-2.374,2.158-3.851c0.851-1.462,1.697-2.717,2.517-3.729
		c0.718-0.891,2.219-1.341,4.461-1.341c2.326,0,3.841,0.944,4.63,2.874c0.327,0.858,0.493,1.761,0.493,2.683
		c0,0.931-0.189,1.927-0.568,2.976c-0.933,2.758-2.32,4.837-4.143,6.196c-0.631,0.509-1.595,0.894-2.866,1.141
		c-1.353,0.261-2.491,0.415-3.385,0.455c-0.926,0.045-1.973,0.068-3.142,0.068H8.596c-0.604,0-1.271,0.577-2.302,1.99l-0.218,0.298
		l0.16,0.333c0.044,0.091,0.442,0.954,1.196,2.594c3.842,8.413,7.441,13.256,11.001,14.801l2.393,0.505l0.124,0.013
		c3.402,0,7.322-3.119,11.981-9.529c0.093-0.125,0.172-0.252,0.242-0.381c1.655-2.198,3.146-3.92,4.417-5.074
		c0.578-0.523,1.013-0.893,1.337-1.153c-0.265,0.507-0.679,1.34-1.241,2.496c-0.665,1.378-1.198,2.467-1.597,3.267
		c-1.797,3.59-2.669,5.908-2.669,7.086c0,0.567,0.216,1.889,2.222,1.889c3.116,0,6.342-1.978,9.791-6.021
		c-0.535,1.595-0.796,2.773-0.796,3.599c0,0.903,0.384,2.422,2.958,2.422c3.476,0,7.192-2.536,11.023-7.495
		c0.135-0.103,0.227-0.225,0.268-0.285c0.052-0.073,0.134-0.185,0.267-0.346c-1.845,4.424-2.094,5.614-2.094,6.105
		c0,1.104,0.674,2.422,3.89,2.422c3.692,0,7.166-1.928,10.326-5.732c0.006-0.008,0.013-0.017,0.02-0.023l0.303-0.133
		c0,0,3.579-1.627,4.904-2.461c0.084-0.03,0.17-0.062,0.293-0.095c1.837-2.493,3.616-4.283,5.002-5.539
		c0.577-0.523,1.014-0.893,1.337-1.154c-0.268,0.507-0.681,1.341-1.24,2.497c-0.667,1.378-1.198,2.466-1.599,3.267
		c-1.796,3.59-2.668,5.908-2.668,7.085c0,0.567,0.216,1.889,2.221,1.889c2.512,0,5.172-1.34,7.911-3.983
		c1.087-1.06,2.251-2.354,3.481-3.867c-0.742,2.077-1.462,3.971-2.145,5.652c-2.199,5.097-4.635,9.47-7.241,12.998
		c-2.571,3.477-5.732,6.049-9.378,7.636c-1.609,0.636-3.296,0.96-5.015,0.96c-1.665,0-3.04-0.485-4.205-1.486
		c-1.136-0.978-1.689-2.343-1.691-4.124l0.135-1.718c0-0.43-0.322-0.752-0.751-0.752c-0.333,0-1.42,0.117-1.42,1.618v1.137
		c0,3.657,1.481,6.292,4.409,7.827c1.64,0.846,3.42,1.272,5.293,1.272c4.294,0,8.354-1.975,12.064-5.87
		c2.026-2.117,3.676-4.28,4.898-6.431c1.204-2.117,2.45-4.689,3.706-7.645c4.901-11.7,7.911-18.38,8.954-19.858
		c0.459-0.67,1.036-0.997,1.76-0.997c0.9,0,1.218-0.585,1.218-1.086S101.494,66.619,100.569,66.619z M69.888,76.542
		c-1.609,2.784-2.986,4.714-4.11,5.75c-1.41,1.41-2.646,2.157-3.569,2.157c-1.05,0-1.05-0.415-1.05-0.717
		c0-1.081,0.807-3.29,4.662-7.682c0.916-1.089,2.134-2.354,3.622-3.753c1.817-1.71,2.572-1.946,2.809-1.966
		c0.011,0.044,0.022,0.121,0.022,0.246C72.274,71.795,71.471,73.804,69.888,76.542z"/>
</g>
</svg>
